# Blender 4.0.2
# www.blender.org
mtllib Battery.mtl
o Cube
v -0.320624 0.638744 0.220694
v -0.220694 0.638744 0.320624
v -0.316651 0.638744 0.250873
v -0.307358 0.638744 0.273309
v -0.292575 0.638744 0.292575
v -0.273309 0.638744 0.307358
v -0.250873 0.638744 0.316651
v -0.220694 0.638744 -0.320624
v -0.320624 0.638744 -0.220694
v -0.250873 0.638744 -0.316651
v -0.273309 0.638744 -0.307358
v -0.292575 0.638744 -0.292575
v -0.307358 0.638744 -0.273309
v -0.316651 0.638744 -0.250873
v 0.220694 0.638744 0.320624
v 0.320624 0.638744 0.220694
v 0.250873 0.638744 0.316651
v 0.273309 0.638744 0.307358
v 0.292575 0.638744 0.292575
v 0.307358 0.638744 0.273309
v 0.316651 0.638744 0.250873
v 0.320624 0.638744 -0.220694
v 0.220694 0.638744 -0.320624
v 0.316651 0.638744 -0.250873
v 0.307358 0.638744 -0.273309
v 0.292575 0.638744 -0.292575
v 0.273309 0.638744 -0.307358
v 0.250873 0.638744 -0.316651
v -0.226796 0.638744 0.413733
v -0.275179 0.638744 0.407364
v -0.320265 0.638744 0.388689
v -0.358981 0.638744 0.358981
v -0.388689 0.638744 0.320265
v -0.407364 0.638744 0.275179
v -0.413733 0.638744 0.226796
v -0.275179 0.638744 -0.407364
v -0.226796 0.638744 -0.413733
v -0.320265 0.638744 -0.388689
v -0.358981 0.638744 -0.358981
v -0.388689 0.638744 -0.320265
v -0.407364 0.638744 -0.275179
v -0.413733 0.638744 -0.226796
v 0.407364 0.638744 -0.275179
v 0.413733 0.638744 -0.226796
v 0.388689 0.638744 -0.320265
v 0.358981 0.638744 -0.358981
v 0.320265 0.638744 -0.388689
v 0.275179 0.638744 -0.407364
v 0.226796 0.638744 -0.413733
v 0.275179 0.638744 0.407364
v 0.226796 0.638744 0.413733
v 0.320265 0.638744 0.388689
v 0.358981 0.638744 0.358981
v 0.388689 0.638744 0.320265
v 0.407364 0.638744 0.275179
v 0.413733 0.638744 0.226796
v -0.215484 0.727435 0.241147
v -0.230125 0.727435 0.239219
v -0.233227 0.727435 0.237935
v -0.235891 0.727435 0.235891
v -0.237935 0.727435 0.233227
v -0.239219 0.727435 0.230125
v -0.241147 0.727435 0.215484
v -0.230125 0.727435 -0.239219
v -0.215484 0.727435 -0.241147
v -0.233227 0.727435 -0.237935
v -0.235891 0.727435 -0.235891
v -0.237935 0.727435 -0.233227
v -0.239219 0.727435 -0.230125
v -0.241147 0.727435 -0.215484
v 0.239219 0.727435 -0.230125
v 0.241147 0.727435 -0.215484
v 0.237935 0.727435 -0.233227
v 0.235891 0.727435 -0.235891
v 0.233227 0.727435 -0.237935
v 0.230125 0.727435 -0.239219
v 0.215484 0.727435 -0.241147
v 0.230125 0.727435 0.239219
v 0.215484 0.727435 0.241147
v 0.233227 0.727435 0.237935
v 0.235891 0.727435 0.235891
v 0.237935 0.727435 0.233227
v 0.239219 0.727435 0.230125
v 0.241147 0.727435 0.215484
v -0.220694 0.686332 0.320624
v -0.250873 0.686332 0.316651
v -0.273309 0.686332 0.307358
v -0.292575 0.686332 0.292575
v -0.307358 0.686332 0.273309
v -0.316651 0.686332 0.250873
v -0.320624 0.686332 0.220694
v -0.250873 0.686332 -0.316651
v -0.220694 0.686332 -0.320624
v -0.273309 0.686332 -0.307358
v -0.292575 0.686332 -0.292575
v -0.307358 0.686332 -0.273309
v -0.316651 0.686332 -0.250873
v -0.320624 0.686332 -0.220694
v 0.316651 0.686332 -0.250873
v 0.320624 0.686332 -0.220694
v 0.307358 0.686332 -0.273309
v 0.292575 0.686332 -0.292575
v 0.273309 0.686332 -0.307358
v 0.250873 0.686332 -0.316651
v 0.220694 0.686332 -0.320624
v 0.250873 0.686332 0.316651
v 0.220694 0.686332 0.320624
v 0.273309 0.686332 0.307358
v 0.292575 0.686332 0.292575
v 0.307358 0.686332 0.273309
v 0.316651 0.686332 0.250873
v 0.320624 0.686332 0.220694
v -0.214119 0.000000 0.390606
v -0.259797 0.000000 0.384593
v -0.302363 0.000000 0.366962
v -0.338914 0.000000 0.338914
v -0.366962 0.000000 0.302363
v -0.384593 0.000000 0.259797
v -0.390606 0.000000 0.214119
v -0.214119 0.000000 -0.390606
v -0.259797 0.000000 -0.384593
v -0.302363 0.000000 -0.366962
v -0.338914 0.000000 -0.338914
v -0.366962 0.000000 -0.302363
v -0.384593 0.000000 -0.259797
v -0.390606 0.000000 -0.214119
v 0.390606 0.000000 -0.214119
v 0.384593 0.000000 -0.259797
v 0.366962 0.000000 -0.302363
v 0.338914 0.000000 -0.338914
v 0.302363 0.000000 -0.366962
v 0.259797 0.000000 -0.384593
v 0.214119 0.000000 -0.390606
v 0.214119 0.000000 0.390606
v 0.259797 0.000000 0.384593
v 0.302363 0.000000 0.366962
v 0.338914 0.000000 0.338914
v 0.366962 0.000000 0.302363
v 0.384593 0.000000 0.259797
v 0.390606 0.000000 0.214119
v -0.200467 0.738281 0.224341
v -0.214087 0.738281 0.222548
v -0.216973 0.738281 0.221352
v -0.219451 0.738281 0.219451
v -0.221352 0.738281 0.216973
v -0.222548 0.738281 0.214087
v -0.224341 0.738281 0.200467
v -0.214087 0.738281 -0.222548
v -0.200467 0.738281 -0.224341
v -0.216973 0.738281 -0.221352
v -0.219451 0.738281 -0.219451
v -0.221352 0.738281 -0.216973
v -0.222548 0.738281 -0.214087
v -0.224341 0.738281 -0.200467
v 0.222548 0.738281 -0.214087
v 0.224341 0.738281 -0.200467
v 0.221352 0.738281 -0.216973
v 0.219451 0.738281 -0.219451
v 0.216973 0.738281 -0.221352
v 0.214087 0.738281 -0.222548
v 0.200467 0.738281 -0.224341
v 0.214087 0.738281 0.222548
v 0.200467 0.738281 0.224341
v 0.216973 0.738281 0.221352
v 0.219451 0.738281 0.219451
v 0.221352 0.738281 0.216973
v 0.222548 0.738281 0.214087
v 0.224341 0.738281 0.200467
v -0.226796 0.340472 0.413733
v -0.275179 0.340472 -0.407364
v -0.320265 0.340472 -0.388689
v -0.358981 0.340472 -0.358981
v -0.388689 0.340472 -0.320265
v -0.407364 0.340472 -0.275179
v -0.413733 0.340472 -0.226796
v 0.407364 0.340472 -0.275179
v 0.388689 0.340472 -0.320265
v 0.358981 0.340472 -0.358981
v 0.320265 0.340472 -0.388689
v 0.275179 0.340472 -0.407364
v 0.226796 0.340472 -0.413733
v 0.275179 0.340472 0.407364
v 0.320265 0.340472 0.388689
v 0.358981 0.340472 0.358981
v 0.388689 0.340472 0.320265
v 0.407364 0.340472 0.275179
v 0.413733 0.340472 0.226796
v -0.275179 0.340472 0.407364
v -0.320265 0.340472 0.388689
v -0.358981 0.340472 0.358981
v -0.388689 0.340472 0.320265
v -0.407364 0.340472 0.275179
v -0.413733 0.340472 0.226796
v -0.226796 0.340472 -0.413733
v 0.413733 0.340472 -0.226796
v 0.226796 0.340472 0.413733
v -0.259797 0.336098 0.384593
v -0.302363 0.336098 0.366962
v -0.338914 0.336098 0.338914
v -0.366962 0.336098 0.302363
v -0.384593 0.336098 0.259797
v -0.390606 0.336098 0.214119
v -0.214119 0.336098 -0.390606
v 0.390606 0.336098 -0.214119
v 0.214119 0.336098 0.390606
v -0.214119 0.336098 0.390606
v -0.259797 0.336098 -0.384593
v -0.302363 0.336098 -0.366962
v -0.338914 0.336098 -0.338914
v -0.366962 0.336098 -0.302363
v -0.384593 0.336098 -0.259797
v -0.390606 0.336098 -0.214119
v 0.384593 0.336098 -0.259797
v 0.366962 0.336098 -0.302363
v 0.338914 0.336098 -0.338914
v 0.302363 0.336098 -0.366962
v 0.259797 0.336098 -0.384593
v 0.214119 0.336098 -0.390606
v 0.259797 0.336098 0.384593
v 0.302363 0.336098 0.366962
v 0.338914 0.336098 0.338914
v 0.366962 0.336098 0.302363
v 0.384593 0.336098 0.259797
v 0.390606 0.336098 0.214119
v -0.320624 -0.638744 0.220694
v -0.220694 -0.638744 0.320624
v -0.316651 -0.638744 0.250873
v -0.307358 -0.638744 0.273309
v -0.292575 -0.638744 0.292575
v -0.273309 -0.638744 0.307358
v -0.250873 -0.638744 0.316651
v -0.220694 -0.638744 -0.320624
v -0.320624 -0.638744 -0.220694
v -0.250873 -0.638744 -0.316651
v -0.273309 -0.638744 -0.307358
v -0.292575 -0.638744 -0.292575
v -0.307358 -0.638744 -0.273309
v -0.316651 -0.638744 -0.250873
v 0.220694 -0.638744 0.320624
v 0.320624 -0.638744 0.220694
v 0.250873 -0.638744 0.316651
v 0.273309 -0.638744 0.307358
v 0.292575 -0.638744 0.292575
v 0.307358 -0.638744 0.273309
v 0.316651 -0.638744 0.250873
v 0.320624 -0.638744 -0.220694
v 0.220694 -0.638744 -0.320624
v 0.316651 -0.638744 -0.250873
v 0.307358 -0.638744 -0.273309
v 0.292575 -0.638744 -0.292575
v 0.273309 -0.638744 -0.307358
v 0.250873 -0.638744 -0.316651
v -0.226796 -0.638744 0.413733
v -0.275179 -0.638744 0.407364
v -0.320265 -0.638744 0.388689
v -0.358981 -0.638744 0.358981
v -0.388689 -0.638744 0.320265
v -0.407364 -0.638744 0.275179
v -0.413733 -0.638744 0.226796
v -0.275179 -0.638744 -0.407364
v -0.226796 -0.638744 -0.413733
v -0.320265 -0.638744 -0.388689
v -0.358981 -0.638744 -0.358981
v -0.388689 -0.638744 -0.320265
v -0.407364 -0.638744 -0.275179
v -0.413733 -0.638744 -0.226796
v 0.407364 -0.638744 -0.275179
v 0.413733 -0.638744 -0.226796
v 0.388689 -0.638744 -0.320265
v 0.358981 -0.638744 -0.358981
v 0.320265 -0.638744 -0.388689
v 0.275179 -0.638744 -0.407364
v 0.226796 -0.638744 -0.413733
v 0.275179 -0.638744 0.407364
v 0.226796 -0.638744 0.413733
v 0.320265 -0.638744 0.388689
v 0.358981 -0.638744 0.358981
v 0.388689 -0.638744 0.320265
v 0.407364 -0.638744 0.275179
v 0.413733 -0.638744 0.226796
v -0.215484 -0.727435 0.241147
v -0.230125 -0.727435 0.239219
v -0.233227 -0.727435 0.237935
v -0.235891 -0.727435 0.235891
v -0.237935 -0.727435 0.233227
v -0.239219 -0.727435 0.230125
v -0.241147 -0.727435 0.215484
v -0.230125 -0.727435 -0.239219
v -0.215484 -0.727435 -0.241147
v -0.233227 -0.727435 -0.237935
v -0.235891 -0.727435 -0.235891
v -0.237935 -0.727435 -0.233227
v -0.239219 -0.727435 -0.230125
v -0.241147 -0.727435 -0.215484
v 0.239219 -0.727435 -0.230125
v 0.241147 -0.727435 -0.215484
v 0.237935 -0.727435 -0.233227
v 0.235891 -0.727435 -0.235891
v 0.233227 -0.727435 -0.237935
v 0.230125 -0.727435 -0.239219
v 0.215484 -0.727435 -0.241147
v 0.230125 -0.727435 0.239219
v 0.215484 -0.727435 0.241147
v 0.233227 -0.727435 0.237935
v 0.235891 -0.727435 0.235891
v 0.237935 -0.727435 0.233227
v 0.239219 -0.727435 0.230125
v 0.241147 -0.727435 0.215484
v -0.220694 -0.686332 0.320624
v -0.250873 -0.686332 0.316651
v -0.273309 -0.686332 0.307358
v -0.292575 -0.686332 0.292575
v -0.307358 -0.686332 0.273309
v -0.316651 -0.686332 0.250873
v -0.320624 -0.686332 0.220694
v -0.250873 -0.686332 -0.316651
v -0.220694 -0.686332 -0.320624
v -0.273309 -0.686332 -0.307358
v -0.292575 -0.686332 -0.292575
v -0.307358 -0.686332 -0.273309
v -0.316651 -0.686332 -0.250873
v -0.320624 -0.686332 -0.220694
v 0.316651 -0.686332 -0.250873
v 0.320624 -0.686332 -0.220694
v 0.307358 -0.686332 -0.273309
v 0.292575 -0.686332 -0.292575
v 0.273309 -0.686332 -0.307358
v 0.250873 -0.686332 -0.316651
v 0.220694 -0.686332 -0.320624
v 0.250873 -0.686332 0.316651
v 0.220694 -0.686332 0.320624
v 0.273309 -0.686332 0.307358
v 0.292575 -0.686332 0.292575
v 0.307358 -0.686332 0.273309
v 0.316651 -0.686332 0.250873
v 0.320624 -0.686332 0.220694
v -0.200467 -0.738281 0.224341
v -0.214087 -0.738281 0.222548
v -0.216973 -0.738281 0.221352
v -0.219451 -0.738281 0.219451
v -0.221352 -0.738281 0.216973
v -0.222548 -0.738281 0.214087
v -0.224341 -0.738281 0.200467
v -0.214087 -0.738281 -0.222548
v -0.200467 -0.738281 -0.224341
v -0.216973 -0.738281 -0.221352
v -0.219451 -0.738281 -0.219451
v -0.221352 -0.738281 -0.216973
v -0.222548 -0.738281 -0.214087
v -0.224341 -0.738281 -0.200467
v 0.222548 -0.738281 -0.214087
v 0.224341 -0.738281 -0.200467
v 0.221352 -0.738281 -0.216973
v 0.219451 -0.738281 -0.219451
v 0.216973 -0.738281 -0.221352
v 0.214087 -0.738281 -0.222548
v 0.200467 -0.738281 -0.224341
v 0.214087 -0.738281 0.222548
v 0.200467 -0.738281 0.224341
v 0.216973 -0.738281 0.221352
v 0.219451 -0.738281 0.219451
v 0.221352 -0.738281 0.216973
v 0.222548 -0.738281 0.214087
v 0.224341 -0.738281 0.200467
v -0.226796 -0.340472 0.413733
v -0.275179 -0.340472 -0.407364
v -0.320265 -0.340472 -0.388689
v -0.358981 -0.340472 -0.358981
v -0.388689 -0.340472 -0.320265
v -0.407364 -0.340472 -0.275179
v -0.413733 -0.340472 -0.226796
v 0.407364 -0.340472 -0.275179
v 0.388689 -0.340472 -0.320265
v 0.358981 -0.340472 -0.358981
v 0.320265 -0.340472 -0.388689
v 0.275179 -0.340472 -0.407364
v 0.226796 -0.340472 -0.413733
v 0.275179 -0.340472 0.407364
v 0.320265 -0.340472 0.388689
v 0.358981 -0.340472 0.358981
v 0.388689 -0.340472 0.320265
v 0.407364 -0.340472 0.275179
v 0.413733 -0.340472 0.226796
v -0.275179 -0.340472 0.407364
v -0.320265 -0.340472 0.388689
v -0.358981 -0.340472 0.358981
v -0.388689 -0.340472 0.320265
v -0.407364 -0.340472 0.275179
v -0.413733 -0.340472 0.226796
v -0.226796 -0.340472 -0.413733
v 0.413733 -0.340472 -0.226796
v 0.226796 -0.340472 0.413733
v -0.259797 -0.336098 0.384593
v -0.302363 -0.336098 0.366962
v -0.338914 -0.336098 0.338914
v -0.366962 -0.336098 0.302363
v -0.384593 -0.336098 0.259797
v -0.390606 -0.336098 0.214119
v -0.214119 -0.336098 -0.390606
v 0.390606 -0.336098 -0.214119
v 0.214119 -0.336098 0.390606
v -0.214119 -0.336098 0.390606
v -0.259797 -0.336098 -0.384593
v -0.302363 -0.336098 -0.366962
v -0.338914 -0.336098 -0.338914
v -0.366962 -0.336098 -0.302363
v -0.384593 -0.336098 -0.259797
v -0.390606 -0.336098 -0.214119
v 0.384593 -0.336098 -0.259797
v 0.366962 -0.336098 -0.302363
v 0.338914 -0.336098 -0.338914
v 0.302363 -0.336098 -0.366962
v 0.259797 -0.336098 -0.384593
v 0.214119 -0.336098 -0.390606
v 0.259797 -0.336098 0.384593
v 0.302363 -0.336098 0.366962
v 0.338914 -0.336098 0.338914
v 0.366962 -0.336098 0.302363
v 0.384593 -0.336098 0.259797
v 0.390606 -0.336098 0.214119
vn 0.7558 -0.6531 -0.0472
vn 0.7558 -0.6531 0.0472
vn 0.9979 -0.0000 0.0654
vn 0.9979 -0.0000 -0.0654
vn 0.6903 0.7221 -0.0452
vn 0.8578 0.5109 -0.0562
vn 0.8578 0.5109 0.0562
vn 0.6903 0.7221 0.0452
vn -0.7558 -0.6531 0.0472
vn -0.7558 -0.6531 -0.0472
vn -0.9979 -0.0000 -0.0654
vn -0.9979 -0.0000 0.0654
vn -0.0472 -0.6531 -0.7558
vn 0.0472 -0.6531 -0.7558
vn 0.0654 -0.0000 -0.9979
vn -0.0654 -0.0000 -0.9979
vn -0.0472 -0.6531 0.7558
vn -0.1881 -0.6727 0.7156
vn -0.2588 -0.0000 0.9659
vn -0.0654 -0.0000 0.9979
vn -0.3663 -0.6775 0.6378
vn -0.5000 -0.0000 0.8660
vn -0.5191 -0.6790 0.5191
vn -0.7071 -0.0000 0.7071
vn -0.6378 -0.6775 0.3663
vn -0.8660 -0.0000 0.5000
vn -0.7156 -0.6727 0.1881
vn -0.9659 -0.0000 0.2588
vn -0.6521 0.7377 0.1747
vn -0.6903 0.7221 0.0452
vn -0.7197 0.6927 0.0472
vn -0.7092 0.6789 0.1900
vn -0.3376 0.7377 -0.5847
vn -0.1747 0.7377 -0.6521
vn -0.1900 0.6789 -0.7092
vn -0.3671 0.6789 -0.6359
vn 0.5847 0.7377 -0.3376
vn 0.6359 0.6789 -0.3671
vn 0.5192 0.6789 -0.5192
vn 0.4774 0.7377 -0.4774
vn 0.3671 0.6789 -0.6359
vn 0.3376 0.7377 -0.5847
vn 0.5847 0.7377 0.3376
vn 0.6359 0.6789 0.3671
vn 0.7092 0.6789 0.1900
vn 0.6521 0.7377 0.1747
vn -0.0452 0.7221 -0.6903
vn -0.0472 0.6927 -0.7197
vn -0.3376 0.7377 0.5847
vn -0.4774 0.7377 0.4774
vn -0.5192 0.6789 0.5192
vn -0.3671 0.6789 0.6359
vn 0.4774 0.7377 0.4774
vn 0.5192 0.6789 0.5192
vn -0.1747 0.7377 0.6521
vn -0.1900 0.6789 0.7092
vn -0.0472 0.6927 0.7197
vn -0.0452 0.7221 0.6903
vn -0.6521 0.7377 -0.1747
vn -0.7092 0.6789 -0.1900
vn -0.7197 0.6927 -0.0472
vn -0.6903 0.7221 -0.0452
vn 0.7197 0.6927 0.0472
vn 0.1747 0.7377 -0.6521
vn 0.1900 0.6789 -0.7092
vn 0.0472 0.6927 -0.7197
vn 0.0452 0.7221 -0.6903
vn -0.5192 0.6789 -0.5192
vn -0.4774 0.7377 -0.4774
vn 0.0472 0.6927 0.7197
vn 0.0452 0.7221 0.6903
vn 0.7197 0.6927 -0.0472
vn -0.2257 0.8953 0.3841
vn -0.1263 0.8877 0.4428
vn -0.0583 0.9635 0.2611
vn -0.1163 0.9704 0.2117
vn -0.0562 0.5109 0.8578
vn -0.2237 0.5030 0.8348
vn -0.0562 0.5109 -0.8578
vn 0.0562 0.5109 -0.8578
vn 0.6111 0.5030 -0.6111
vn 0.7485 0.5030 -0.4321
vn -0.4321 0.5030 0.7485
vn 0.4321 0.5030 -0.7485
vn -0.6111 0.5030 0.6111
vn 0.2237 0.5030 -0.8348
vn -0.7485 0.5030 0.4321
vn -0.5847 0.7377 0.3376
vn -0.8348 0.5030 0.2237
vn 0.1747 0.7377 0.6521
vn 0.2237 0.5030 0.8348
vn 0.0562 0.5109 0.8578
vn -0.8578 0.5109 0.0562
vn 0.3376 0.7377 0.5847
vn 0.4321 0.5030 0.7485
vn -0.2237 0.5030 -0.8348
vn 0.6111 0.5030 0.6111
vn -0.6111 0.5030 -0.6111
vn -0.4321 0.5030 -0.7485
vn 0.8348 0.5030 -0.2237
vn 0.6521 0.7377 -0.1747
vn 0.8348 0.5030 0.2237
vn 0.7485 0.5030 0.4321
vn -0.5847 0.7377 -0.3376
vn -0.7485 0.5030 -0.4321
vn -0.8348 0.5030 -0.2237
vn -0.8578 0.5109 -0.0562
vn -0.1263 0.8877 -0.4428
vn -0.2257 0.8953 -0.3841
vn -0.3117 0.8976 -0.3117
vn -0.3841 0.8953 -0.2257
vn 0.1263 0.8877 0.4428
vn 0.0375 0.8741 0.4844
vn 0.4428 0.8877 -0.1263
vn 0.3841 0.8953 -0.2257
vn 0.3117 0.8976 0.3117
vn 0.2257 0.8953 0.3841
vn 0.2257 0.8953 -0.3841
vn 0.1263 0.8877 -0.4428
vn -0.0375 0.8741 0.4844
vn 0.3841 0.8953 0.2257
vn -0.4428 0.8877 -0.1263
vn -0.4844 0.8741 -0.0375
vn 0.4844 0.8741 -0.0375
vn -0.3841 0.8953 0.2257
vn -0.4428 0.8877 0.1263
vn 0.3117 0.8976 -0.3117
vn -0.3117 0.8976 0.3117
vn 0.0375 0.8741 -0.4844
vn -0.4844 0.8741 0.0375
vn 0.4844 0.8741 0.0375
vn 0.7565 -0.6209 0.2053
vn 0.7764 -0.6280 0.0528
vn 0.6759 -0.6244 0.3916
vn 0.5517 -0.6255 0.5517
vn 0.3916 -0.6244 0.6759
vn 0.3671 0.6789 0.6359
vn 0.2053 -0.6209 0.7565
vn 0.1900 0.6789 0.7092
vn 0.0528 -0.6280 0.7764
vn 0.2053 -0.6209 -0.7565
vn 0.0528 -0.6280 -0.7764
vn 0.3916 -0.6244 -0.6759
vn 0.5517 -0.6255 -0.5517
vn 0.6759 -0.6244 -0.3916
vn 0.7565 -0.6209 -0.2053
vn 0.7092 0.6789 -0.1900
vn 0.7764 -0.6280 -0.0528
vn -0.7565 -0.6209 -0.2053
vn -0.7764 -0.6280 -0.0528
vn -0.6759 -0.6244 -0.3916
vn -0.6359 0.6789 -0.3671
vn -0.5517 -0.6255 -0.5517
vn -0.3916 -0.6244 -0.6759
vn -0.2053 -0.6209 -0.7565
vn 0.1652 0.9723 -0.1652
vn 0.2116 0.9704 -0.1163
vn -0.0375 0.8741 -0.4844
vn -0.0113 0.9583 -0.2856
vn 0.0113 0.9583 -0.2856
vn -0.0113 0.9583 0.2856
vn 0.2611 0.9635 -0.0583
vn 0.2856 0.9583 -0.0113
vn 0.2856 0.9583 0.0113
vn 0.0113 0.9583 0.2856
vn -0.2856 0.9583 -0.0113
vn -0.2611 0.9635 -0.0583
vn -0.2856 0.9583 0.0113
vn -0.2117 0.9704 -0.1163
vn 0.4428 0.8877 0.1263
vn 0.2611 0.9636 0.0583
vn -0.1652 0.9723 -0.1652
vn 0.2116 0.9704 0.1163
vn -0.1162 0.9704 -0.2117
vn 0.1652 0.9723 0.1652
vn -0.0583 0.9635 -0.2611
vn 0.1163 0.9704 0.2117
vn 0.0583 0.9635 0.2611
vn -0.2611 0.9635 0.0583
vn -0.2117 0.9704 0.1163
vn 0.0583 0.9635 -0.2611
vn -0.1651 0.9723 0.1652
vn 0.1163 0.9704 -0.2117
vn -0.6359 0.6789 0.3671
vn 0.0472 -0.6531 0.7558
vn 0.0654 -0.0000 0.9979
vn -0.0528 -0.6280 -0.7764
vn -0.1881 -0.6727 -0.7156
vn -0.0528 -0.6280 0.7764
vn -0.3663 -0.6775 -0.6378
vn -0.5191 -0.6790 -0.5191
vn -0.6378 -0.6775 -0.3663
vn -0.7156 -0.6727 -0.1881
vn 0.7156 -0.6727 -0.1881
vn 0.6378 -0.6775 -0.3663
vn 0.5191 -0.6790 -0.5191
vn 0.3663 -0.6775 -0.6378
vn 0.1881 -0.6727 -0.7156
vn 0.1881 -0.6727 0.7156
vn 0.3663 -0.6775 0.6378
vn 0.5191 -0.6790 0.5191
vn 0.6378 -0.6775 0.3663
vn 0.7156 -0.6727 0.1881
vn -0.7764 -0.6280 0.0528
vn -0.7565 -0.6209 0.2053
vn -0.6759 -0.6244 0.3916
vn -0.5517 -0.6255 0.5517
vn -0.3916 -0.6244 0.6759
vn -0.2053 -0.6209 0.7565
vn 0.9659 -0.0000 0.2588
vn 0.8660 -0.0000 0.5000
vn 0.7071 -0.0000 0.7071
vn 0.5000 -0.0000 0.8660
vn 0.2588 -0.0000 0.9659
vn 0.2588 -0.0000 -0.9659
vn 0.5000 -0.0000 -0.8660
vn 0.7071 -0.0000 -0.7071
vn 0.8660 -0.0000 -0.5000
vn 0.9659 -0.0000 -0.2588
vn -0.9659 -0.0000 -0.2588
vn -0.8660 -0.0000 -0.5000
vn -0.7071 -0.0000 -0.7071
vn -0.5000 -0.0000 -0.8660
vn -0.2588 -0.0000 -0.9659
vn 0.7558 0.6531 -0.0472
vn 0.7558 0.6531 0.0472
vn 0.6903 -0.7221 -0.0452
vn 0.6903 -0.7221 0.0452
vn 0.8578 -0.5109 0.0562
vn 0.8578 -0.5109 -0.0562
vn -0.7558 0.6531 0.0472
vn -0.7558 0.6531 -0.0472
vn -0.0472 0.6531 -0.7558
vn 0.0472 0.6531 -0.7558
vn -0.0472 0.6531 0.7558
vn -0.1881 0.6727 0.7156
vn -0.3663 0.6775 0.6378
vn -0.5191 0.6790 0.5191
vn -0.6378 0.6775 0.3663
vn -0.7156 0.6727 0.1881
vn -0.6521 -0.7377 0.1747
vn -0.7092 -0.6789 0.1900
vn -0.7197 -0.6927 0.0472
vn -0.6903 -0.7221 0.0452
vn -0.3376 -0.7377 -0.5847
vn -0.3671 -0.6789 -0.6359
vn -0.1900 -0.6789 -0.7092
vn -0.1747 -0.7377 -0.6521
vn 0.5847 -0.7377 -0.3376
vn 0.4774 -0.7377 -0.4774
vn 0.5192 -0.6789 -0.5192
vn 0.6359 -0.6789 -0.3671
vn 0.3376 -0.7377 -0.5847
vn 0.3671 -0.6789 -0.6359
vn 0.5847 -0.7377 0.3376
vn 0.6521 -0.7377 0.1747
vn 0.7092 -0.6789 0.1900
vn 0.6359 -0.6789 0.3671
vn -0.0472 -0.6927 -0.7197
vn -0.0452 -0.7221 -0.6903
vn -0.3376 -0.7377 0.5847
vn -0.3671 -0.6789 0.6359
vn -0.5192 -0.6789 0.5192
vn -0.4774 -0.7377 0.4774
vn 0.4774 -0.7377 0.4774
vn 0.5192 -0.6789 0.5192
vn -0.1747 -0.7377 0.6521
vn -0.0452 -0.7221 0.6903
vn -0.0472 -0.6927 0.7197
vn -0.1900 -0.6789 0.7092
vn -0.6521 -0.7377 -0.1747
vn -0.6903 -0.7221 -0.0452
vn -0.7197 -0.6927 -0.0472
vn -0.7092 -0.6789 -0.1900
vn 0.7197 -0.6927 0.0472
vn 0.1747 -0.7377 -0.6521
vn 0.0452 -0.7221 -0.6903
vn 0.0472 -0.6927 -0.7197
vn 0.1900 -0.6789 -0.7092
vn -0.4774 -0.7377 -0.4774
vn -0.5192 -0.6789 -0.5192
vn 0.0452 -0.7221 0.6903
vn 0.0472 -0.6927 0.7197
vn 0.7197 -0.6927 -0.0472
vn -0.2257 -0.8953 0.3841
vn -0.1163 -0.9704 0.2117
vn -0.0583 -0.9635 0.2611
vn -0.1263 -0.8877 0.4428
vn -0.2237 -0.5030 0.8348
vn -0.0562 -0.5109 0.8578
vn 0.0562 -0.5109 -0.8578
vn -0.0562 -0.5109 -0.8578
vn 0.7485 -0.5030 -0.4321
vn 0.6111 -0.5030 -0.6111
vn -0.4321 -0.5030 0.7485
vn 0.4321 -0.5030 -0.7485
vn -0.6111 -0.5030 0.6111
vn 0.2237 -0.5030 -0.8348
vn -0.5847 -0.7377 0.3376
vn -0.7485 -0.5030 0.4321
vn -0.8348 -0.5030 0.2237
vn 0.1747 -0.7377 0.6521
vn 0.0562 -0.5109 0.8578
vn 0.2237 -0.5030 0.8348
vn -0.8578 -0.5109 0.0562
vn 0.3376 -0.7377 0.5847
vn 0.4321 -0.5030 0.7485
vn -0.2237 -0.5030 -0.8348
vn 0.6111 -0.5030 0.6111
vn -0.4321 -0.5030 -0.7485
vn -0.6111 -0.5030 -0.6111
vn 0.6521 -0.7377 -0.1747
vn 0.8348 -0.5030 -0.2237
vn 0.7485 -0.5030 0.4321
vn 0.8348 -0.5030 0.2237
vn -0.5847 -0.7377 -0.3376
vn -0.7485 -0.5030 -0.4321
vn -0.8348 -0.5030 -0.2237
vn -0.8578 -0.5109 -0.0562
vn -0.1263 -0.8877 -0.4428
vn -0.2257 -0.8953 -0.3841
vn -0.3117 -0.8976 -0.3117
vn -0.3841 -0.8953 -0.2257
vn 0.1263 -0.8877 0.4428
vn 0.0375 -0.8741 0.4844
vn 0.4428 -0.8877 -0.1263
vn 0.3841 -0.8953 -0.2257
vn 0.3117 -0.8976 0.3117
vn 0.2257 -0.8953 0.3841
vn 0.2257 -0.8953 -0.3841
vn 0.1263 -0.8877 -0.4428
vn -0.0375 -0.8741 0.4844
vn 0.3841 -0.8953 0.2257
vn -0.4428 -0.8877 -0.1263
vn -0.4844 -0.8741 -0.0375
vn 0.4844 -0.8741 -0.0375
vn -0.3841 -0.8953 0.2257
vn -0.4428 -0.8877 0.1263
vn 0.3117 -0.8976 -0.3117
vn -0.3117 -0.8976 0.3117
vn 0.0375 -0.8741 -0.4844
vn -0.4844 -0.8741 0.0375
vn 0.4844 -0.8741 0.0375
vn 0.7565 0.6209 0.2053
vn 0.7764 0.6280 0.0528
vn 0.6759 0.6244 0.3916
vn 0.5517 0.6255 0.5517
vn 0.3916 0.6244 0.6759
vn 0.3671 -0.6789 0.6359
vn 0.2053 0.6209 0.7565
vn 0.1900 -0.6789 0.7092
vn 0.0528 0.6280 0.7764
vn 0.2053 0.6209 -0.7565
vn 0.0528 0.6280 -0.7764
vn 0.3916 0.6244 -0.6759
vn 0.5517 0.6255 -0.5517
vn 0.6759 0.6244 -0.3916
vn 0.7565 0.6209 -0.2053
vn 0.7092 -0.6789 -0.1900
vn 0.7764 0.6280 -0.0528
vn -0.7565 0.6209 -0.2053
vn -0.7764 0.6280 -0.0528
vn -0.6759 0.6244 -0.3916
vn -0.6359 -0.6789 -0.3671
vn -0.5517 0.6255 -0.5517
vn -0.3916 0.6244 -0.6759
vn -0.2053 0.6209 -0.7565
vn 0.2116 -0.9704 -0.1163
vn 0.1652 -0.9723 -0.1652
vn 0.0113 -0.9583 -0.2856
vn -0.0113 -0.9583 -0.2856
vn -0.0375 -0.8741 -0.4844
vn -0.0113 -0.9583 0.2856
vn 0.2611 -0.9635 -0.0583
vn 0.2856 -0.9583 0.0113
vn 0.2856 -0.9583 -0.0113
vn 0.0113 -0.9583 0.2856
vn -0.2611 -0.9635 -0.0583
vn -0.2856 -0.9583 -0.0113
vn -0.2856 -0.9583 0.0113
vn -0.2117 -0.9704 -0.1163
vn 0.4428 -0.8877 0.1263
vn 0.2611 -0.9636 0.0583
vn -0.1652 -0.9723 -0.1652
vn 0.2116 -0.9704 0.1163
vn -0.1162 -0.9704 -0.2117
vn 0.1652 -0.9723 0.1652
vn -0.0583 -0.9635 -0.2611
vn 0.1163 -0.9704 0.2117
vn 0.0583 -0.9635 0.2611
vn -0.2611 -0.9635 0.0583
vn -0.2117 -0.9704 0.1163
vn 0.0583 -0.9635 -0.2611
vn -0.1651 -0.9723 0.1652
vn 0.1163 -0.9704 -0.2117
vn -0.6359 -0.6789 0.3671
vn 0.0472 0.6531 0.7558
vn -0.0528 0.6280 -0.7764
vn -0.1881 0.6727 -0.7156
vn -0.0528 0.6280 0.7764
vn -0.3663 0.6775 -0.6378
vn -0.5191 0.6790 -0.5191
vn -0.6378 0.6775 -0.3663
vn -0.7156 0.6727 -0.1881
vn 0.7156 0.6727 -0.1881
vn 0.6378 0.6775 -0.3663
vn 0.5191 0.6790 -0.5191
vn 0.3663 0.6775 -0.6378
vn 0.1881 0.6727 -0.7156
vn 0.1881 0.6727 0.7156
vn 0.3663 0.6775 0.6378
vn 0.5191 0.6790 0.5191
vn 0.6378 0.6775 0.3663
vn 0.7156 0.6727 0.1881
vn -0.7565 0.6209 0.2053
vn -0.7764 0.6280 0.0528
vn -0.6759 0.6244 0.3916
vn -0.5517 0.6255 0.5517
vn -0.3916 0.6244 0.6759
vn -0.2053 0.6209 0.7565
vt 0.994608 0.193271
vt 0.816953 0.193271
vt 0.816953 0.009337
vt 0.994608 0.009337
vt 0.325043 0.962355
vt 0.329434 0.938065
vt 0.667033 0.936496
vt 0.672082 0.961899
vt 0.510343 0.193271
vt 0.303953 0.193271
vt 0.303953 0.009337
vt 0.510343 0.009337
vt 0.226491 0.193271
vt 0.081587 0.193271
vt 0.081587 0.009337
vt 0.226491 0.009337
vt 0.601033 0.193271
vt 0.587236 0.193271
vt 0.587236 0.009337
vt 0.601033 0.009337
vt 0.573866 0.193271
vt 0.573866 0.009337
vt 0.560123 0.193271
vt 0.560123 0.009337
vt 0.544407 0.193271
vt 0.544407 0.009337
vt 0.527385 0.193271
vt 0.527385 0.009337
vt 0.527385 0.372886
vt 0.510343 0.372886
vt 0.510343 0.354408
vt 0.527385 0.354408
vt 0.250373 0.372886
vt 0.238698 0.372886
vt 0.238698 0.354408
vt 0.250373 0.354408
vt 0.031528 0.372886
vt 0.031528 0.354408
vt 0.042671 0.354408
vt 0.042671 0.372886
vt 0.055029 0.354408
vt 0.055029 0.372886
vt 0.795107 0.372886
vt 0.795107 0.354408
vt 0.805658 0.354408
vt 0.805658 0.372886
vt 0.226491 0.372886
vt 0.226491 0.354408
vt 0.573866 0.372886
vt 0.560123 0.372886
vt 0.560123 0.354408
vt 0.573866 0.354408
vt 0.784480 0.372886
vt 0.784480 0.354408
vt 0.587236 0.372886
vt 0.587236 0.354408
vt 0.601033 0.354408
vt 0.601033 0.372886
vt 0.289816 0.372886
vt 0.289816 0.354408
vt 0.303953 0.354408
vt 0.303953 0.372886
vt 0.816953 0.354408
vt 0.816953 0.372886
vt 0.068664 0.372886
vt 0.068664 0.354408
vt 0.081587 0.354408
vt 0.081587 0.372886
vt 0.262237 0.354408
vt 0.262237 0.372886
vt 0.748207 0.354408
vt 0.748207 0.372886
vt 0.994608 0.354408
vt 0.994608 0.372886
vt 0.675148 0.518711
vt 0.676130 0.521007
vt 0.765151 0.519490
vt 0.739754 0.524557
vt 0.734170 0.502713
vt 0.757554 0.492672
vt 0.229596 0.521953
vt 0.253887 0.526369
vt 0.254910 0.864243
vt 0.229483 0.869279
vt 0.261998 0.932900
vt 0.279015 0.914837
vt 0.292355 0.925322
vt 0.279577 0.946312
vt 0.726383 0.487261
vt 0.746975 0.472984
vt 0.247579 0.915879
vt 0.268237 0.901643
vt 0.715586 0.474094
vt 0.732538 0.456015
vt 0.237030 0.896123
vt 0.260470 0.886109
vt 0.702210 0.463646
vt 0.714947 0.442654
vt 0.686746 0.456200
vt 0.695305 0.433283
vt 0.758492 0.892240
vt 0.735594 0.883651
vt 0.740881 0.862050
vt 0.765151 0.866466
vt 0.665151 0.450940
vt 0.669544 0.426673
vt 0.749078 0.911849
vt 0.728114 0.899045
vt 0.236247 0.496163
vt 0.259162 0.504742
vt 0.735668 0.929419
vt 0.717632 0.912406
vt 0.259053 0.458953
vt 0.277106 0.475960
vt 0.266633 0.489332
vt 0.245651 0.476539
vt 0.307825 0.932789
vt 0.299237 0.955725
vt 0.698892 0.954356
vt 0.688884 0.930933
vt 0.704411 0.923167
vt 0.718636 0.943826
vt 0.276083 0.444530
vt 0.290323 0.465187
vt 0.295830 0.433988
vt 0.305842 0.457413
vt 0.327680 0.451850
vt 0.322651 0.426449
vt 0.317311 0.522248
vt 0.318264 0.519940
vt 0.319771 0.517967
vt 0.321730 0.516449
vt 0.677424 0.866094
vt 0.678923 0.855196
vt 0.325328 0.874646
vt 0.323012 0.873694
vt 0.674976 0.870385
vt 0.676476 0.868406
vt 0.319512 0.870238
vt 0.318532 0.867935
vt 0.677671 0.531916
vt 0.673020 0.871910
vt 0.324034 0.515472
vt 0.334947 0.513886
vt 0.336227 0.876137
vt 0.671647 0.515260
vt 0.669328 0.514312
vt 0.321038 0.872193
vt 0.673624 0.516757
vt 0.317009 0.857014
vt 0.658416 0.512843
vt 0.659790 0.874416
vt 0.805658 0.193271
vt 0.816953 0.193271
vt 0.795107 0.193271
vt 0.784480 0.193271
vt 0.773257 0.193271
vt 0.773257 0.354408
vt 0.760379 0.193271
vt 0.760379 0.354408
vt 0.748207 0.193271
vt 0.068664 0.193271
vt 0.055029 0.193271
vt 0.042671 0.193271
vt 0.031528 0.193271
vt 0.020510 0.193271
vt 0.020510 0.354408
vt 0.008661 0.193271
vt 0.008661 0.354408
vt 0.289816 0.193271
vt 0.275300 0.193271
vt 0.275300 0.354408
vt 0.262237 0.193271
vt 0.250373 0.193271
vt 0.238698 0.193271
vt 0.315886 0.533157
vt 0.670718 0.872889
vt 0.773257 0.372886
vt 0.275300 0.372886
vt 0.544407 0.354408
vt 0.544407 0.372886
vt 0.760379 0.372886
vt 0.020510 0.372886
vt 0.008661 0.372886
vt 0.748207 0.009337
vt 0.601033 0.193271
vt 0.510343 0.193271
vt 0.805658 0.009337
vt 0.795107 0.009337
vt 0.784480 0.009337
vt 0.773257 0.009337
vt 0.760379 0.009337
vt 0.068664 0.009337
vt 0.055029 0.009337
vt 0.042671 0.009337
vt 0.031528 0.009337
vt 0.020510 0.009337
vt 0.008661 0.009337
vt 0.289816 0.009337
vt 0.275300 0.009337
vt 0.262237 0.009337
vt 0.250373 0.009337
vt 0.238698 0.009337
s 1
usemtl Material
f 204/1/1 224/2/2 140/3/3 127/4/4
f 22/5/5 100/6/6 112/7/7 16/8/8
f 202/9/9 212/10/10 126/11/11 119/12/12
f 203/13/13 218/14/14 133/15/15 120/16/16
f 206/17/17 197/18/18 114/19/19 113/20/20
f 197/18/18 198/21/21 115/22/22 114/19/19
f 198/21/21 199/23/23 116/24/24 115/22/22
f 199/23/23 200/25/25 117/26/26 116/24/24
f 200/25/25 201/27/27 118/28/28 117/26/26
f 201/27/27 202/9/9 119/12/12 118/28/28
f 3/29/29 1/30/30 35/31/31 34/32/32
f 11/33/33 10/34/34 36/35/35 38/36/36
f 25/37/37 45/38/38 46/39/39 26/40/40
f 26/40/40 46/39/39 47/41/41 27/42/42
f 20/43/43 54/44/44 55/45/45 21/46/46
f 10/34/34 8/47/47 37/48/48 36/35/35
f 6/49/49 5/50/50 32/51/51 31/52/52
f 19/53/53 53/54/54 54/44/44 20/43/43
f 7/55/55 30/56/56 29/57/57 2/58/58
f 14/59/59 41/60/60 42/61/61 9/62/62
f 21/46/46 55/45/45 56/63/63 16/64/8
f 28/65/64 48/66/65 49/67/66 23/68/67
f 27/42/42 47/41/41 48/66/65 28/65/64
f 11/33/33 38/36/36 39/69/68 12/70/69
f 2/58/58 29/57/57 51/71/70 15/72/71
f 16/64/8 56/63/63 44/73/72 22/74/5
f 23/68/67 49/67/66 37/48/48 8/47/47
f 59/75/73 58/76/74 142/76/75 143/75/76
f 2/77/58 85/78/77 86/79/78 7/80/55
f 8/81/47 93/82/79 105/83/80 23/84/67
f 26/85/40 102/86/81 101/87/82 25/88/37
f 7/80/55 86/79/78 87/89/83 6/90/49
f 27/91/42 103/92/84 102/86/81 26/85/40
f 6/90/49 87/89/83 88/93/85 5/94/50
f 28/95/64 104/96/86 103/92/84 27/91/42
f 5/94/50 88/93/85 89/97/87 4/98/88
f 23/84/67 105/83/80 104/96/86 28/95/64
f 4/98/88 89/97/87 90/99/89 3/100/29
f 17/101/90 106/102/91 107/103/92 15/104/71
f 3/100/29 90/99/89 91/105/93 1/106/30
f 18/107/94 108/108/95 106/102/91 17/101/90
f 10/109/34 92/110/96 93/82/79 8/81/47
f 19/111/53 109/112/97 108/108/95 18/107/94
f 12/113/69 95/114/98 94/115/99 11/116/33
f 15/104/71 107/103/92 85/78/77 2/77/58
f 25/88/37 101/87/82 99/117/100 24/118/101
f 21/119/46 111/120/102 110/121/103 20/122/43
f 13/123/104 96/124/105 95/114/98 12/113/69
f 16/8/8 112/7/7 111/120/102 21/119/46
f 14/125/59 97/126/106 96/124/105 13/123/104
f 1/106/30 91/105/93 98/127/107 9/128/62
f 9/128/62 98/127/107 97/126/106 14/125/59
f 64/129/108 92/110/96 94/115/99 66/130/109
f 67/131/110 95/114/98 96/124/105 68/132/111
f 78/133/112 79/134/113 107/103/92 106/102/91
f 71/135/114 99/117/100 101/87/82 73/136/115
f 81/137/116 80/138/117 108/108/95 109/112/97
f 75/139/118 103/92/84 104/96/86 76/140/119
f 58/76/74 86/79/78 85/78/77 57/141/120
f 78/133/112 106/102/91 108/108/95 80/138/117
f 81/137/116 109/112/97 110/121/103 82/142/121
f 69/143/122 97/126/106 98/127/107 70/144/123
f 71/135/114 72/145/124 100/6/6 99/117/100
f 61/146/125 62/147/126 90/99/89 89/97/87
f 74/148/127 73/136/115 101/87/82 102/86/81
f 60/149/128 61/146/125 89/97/87 88/93/85
f 68/132/111 96/124/105 97/126/106 69/143/122
f 76/140/119 104/96/86 105/83/80 77/150/129
f 9/62/62 42/61/61 35/31/31 1/30/30
f 70/144/123 98/127/107 91/105/93 63/151/130
f 84/152/131 112/7/7 100/6/6 72/145/124
f 11/116/33 94/115/99 92/110/96 10/109/34
f 186/153/132 187/154/133 56/63/63 55/45/45
f 185/155/134 186/153/132 55/45/45 54/44/44
f 184/156/135 185/155/134 54/44/44 53/54/54
f 183/157/136 184/156/135 53/54/54 52/158/137
f 182/159/138 183/157/136 52/158/137 50/160/139
f 196/161/140 182/159/138 50/160/139 51/71/70
f 180/162/141 181/14/142 49/67/66 48/66/65
f 179/163/143 180/162/141 48/66/65 47/41/41
f 178/164/144 179/163/143 47/41/41 46/39/39
f 177/165/145 178/164/144 46/39/39 45/38/38
f 176/166/146 177/165/145 45/38/38 43/167/147
f 195/168/148 176/166/146 43/167/147 44/169/72
f 174/170/149 175/10/150 42/61/61 41/60/60
f 173/171/151 174/170/149 41/60/60 40/172/152
f 172/173/153 173/171/151 40/172/152 39/69/68
f 171/174/154 172/173/153 39/69/68 38/36/36
f 170/175/155 171/174/154 38/36/36 36/35/35
f 73/136/115 74/148/127 158/148/156 157/136/157
f 77/150/129 65/176/158 149/176/159 161/150/160
f 58/76/74 57/141/120 141/141/161 142/76/75
f 71/135/114 73/136/115 157/136/157 155/135/162
f 84/152/131 72/145/124 156/145/163 168/152/164
f 72/145/124 71/135/114 155/135/162 156/145/163
f 57/141/120 79/134/113 163/134/165 141/141/161
f 69/143/122 70/144/123 154/144/166 153/143/167
f 70/144/123 63/151/130 147/151/168 154/144/166
f 68/132/111 69/143/122 153/143/167 152/132/169
f 83/177/170 84/152/131 168/152/164 167/177/171
f 67/131/110 68/132/111 152/132/169 151/131/172
f 82/142/121 83/177/170 167/177/171 166/142/173
f 66/130/109 67/131/110 151/131/172 150/130/174
f 81/137/116 82/142/121 166/142/173 165/137/175
f 64/129/108 66/130/109 150/130/174 148/129/176
f 80/138/117 81/137/116 165/137/175 164/138/177
f 65/176/158 64/129/108 148/129/176 149/176/159
f 78/133/112 80/138/117 164/138/177 162/133/178
f 63/151/130 62/147/126 146/147/179 147/151/168
f 79/134/113 78/133/112 162/133/178 163/134/165
f 62/147/126 61/146/125 145/146/180 146/147/179
f 76/140/119 77/150/129 161/150/160 160/140/181
f 61/146/125 60/149/128 144/149/182 145/146/180
f 75/139/118 76/140/119 160/140/181 159/139/183
f 20/122/43 110/121/103 109/112/97 19/111/53
f 18/178/94 52/158/137 53/54/54 19/53/53
f 12/70/69 39/69/68 40/172/152 13/179/104
f 3/29/29 34/32/32 33/180/184 4/181/88
f 18/178/94 17/182/90 50/160/139 52/158/137
f 13/179/104 40/172/152 41/60/60 14/59/59
f 25/37/37 24/183/101 43/167/147 45/38/38
f 4/181/88 33/180/184 32/51/51 5/50/50
f 17/182/90 15/72/71 51/71/70 50/160/139
f 24/183/101 22/184/5 44/169/72 43/167/147
f 64/129/108 65/176/158 93/82/79 92/110/96
f 205/161/185 206/17/17 113/20/20 134/185/186
f 194/13/187 170/175/155 36/35/35 37/48/48
f 62/147/126 63/151/130 91/105/93 90/99/89
f 59/75/73 87/89/83 86/79/78 58/76/74
f 6/49/49 31/52/52 30/56/56 7/55/55
f 74/148/127 102/86/81 103/92/84 75/139/118
f 82/142/121 110/121/103 111/120/102 83/177/170
f 83/177/170 111/120/102 112/7/7 84/152/131
f 67/131/110 66/130/109 94/115/99 95/114/98
f 60/149/128 88/93/85 87/89/83 59/75/73
f 77/150/129 105/83/80 93/82/79 65/176/158
f 149/176/159 147/151/168 168/152/164 161/150/160
f 168/152/164 147/151/168 163/134/165
f 168/152/164 156/145/163 161/150/160
f 156/145/163 155/135/162 161/150/160
f 155/135/162 157/136/157 158/148/156
f 158/148/156 159/139/183 160/140/181
f 160/140/181 161/150/160 155/135/162
f 57/141/120 85/78/77 107/103/92 79/134/113
f 160/140/181 155/135/162 158/148/156
f 149/176/159 148/129/176 153/143/167
f 148/129/176 150/130/174 152/132/169
f 150/130/174 151/131/172 152/132/169
f 152/132/169 153/143/167 148/129/176
f 153/143/167 154/144/166 149/176/159
f 154/144/166 147/151/168 149/176/159
f 147/151/168 146/147/179 141/141/161
f 146/147/179 145/146/180 144/149/182
f 144/149/182 143/75/76 146/147/179
f 143/75/76 142/76/75 146/147/179
f 142/76/75 141/141/161 146/147/179
f 141/141/161 163/134/165 147/151/168
f 163/134/165 162/133/178 168/152/164
f 162/133/178 164/138/177 167/177/171
f 168/152/164 162/133/178 167/177/171
f 164/138/177 165/137/175 166/142/173
f 166/142/173 167/177/171 164/138/177
f 74/148/127 75/139/118 159/139/183 158/148/156
f 60/149/128 59/75/73 143/75/76 144/149/182
f 24/118/101 99/117/100 100/6/6 22/5/5
f 203/13/13 207/175/188 170/175/155 194/13/187
f 51/71/70 29/57/57 169/186/189 196/161/140
f 207/175/188 208/174/190 171/174/154 170/175/155
f 208/174/190 209/173/191 172/173/153 171/174/154
f 209/173/191 210/171/192 173/171/151 172/173/153
f 210/171/192 211/170/193 174/170/149 173/171/151
f 211/170/193 212/10/10 175/10/150 174/170/149
f 204/168/1 213/166/194 176/166/146 195/168/148
f 213/166/194 214/165/195 177/165/145 176/166/146
f 214/165/195 215/164/196 178/164/144 177/165/145
f 215/164/196 216/163/197 179/163/143 178/164/144
f 216/163/197 217/162/198 180/162/141 179/163/143
f 217/162/198 218/14/14 181/14/142 180/162/141
f 205/161/185 219/159/199 182/159/138 196/161/140
f 219/159/199 220/157/200 183/157/136 182/159/138
f 220/157/200 221/156/201 184/156/135 183/157/136
f 221/156/201 222/155/202 185/155/134 184/156/135
f 222/155/202 223/153/203 186/153/132 185/155/134
f 223/153/203 224/2/2 187/154/133 186/153/132
f 34/32/32 35/31/31 193/187/204 192/27/205
f 33/180/184 34/32/32 192/27/205 191/25/206
f 32/51/51 33/180/184 191/25/206 190/23/207
f 31/52/52 32/51/51 190/23/207 189/21/208
f 30/56/56 31/52/52 189/21/208 188/18/209
f 29/57/57 30/56/56 188/18/209 169/186/189
f 37/48/48 49/67/66 181/14/142 194/13/187
f 35/31/31 42/61/61 175/10/150 193/187/204
f 44/73/72 56/63/63 187/154/133 195/1/148
f 139/188/210 140/3/3 224/2/2 223/153/203
f 138/189/211 139/188/210 223/153/203 222/155/202
f 137/190/212 138/189/211 222/155/202 221/156/201
f 136/191/213 137/190/212 221/156/201 220/157/200
f 135/192/214 136/191/213 220/157/200 219/159/199
f 134/185/186 135/192/214 219/159/199 205/161/185
f 132/193/215 133/15/15 218/14/14 217/162/198
f 131/194/216 132/193/215 217/162/198 216/163/197
f 130/195/217 131/194/216 216/163/197 215/164/196
f 129/196/218 130/195/217 215/164/196 214/165/195
f 128/197/219 129/196/218 214/165/195 213/166/194
f 127/198/4 128/197/219 213/166/194 204/168/1
f 125/199/220 126/11/11 212/10/10 211/170/193
f 124/200/221 125/199/220 211/170/193 210/171/192
f 123/201/222 124/200/221 210/171/192 209/173/191
f 122/202/223 123/201/222 209/173/191 208/174/190
f 121/203/224 122/202/223 208/174/190 207/175/188
f 120/16/16 121/203/224 207/175/188 203/13/13
f 196/161/140 169/186/189 206/17/17 205/161/185
f 192/27/205 193/187/204 202/9/9 201/27/27
f 191/25/206 192/27/205 201/27/27 200/25/25
f 190/23/207 191/25/206 200/25/25 199/23/23
f 189/21/208 190/23/207 199/23/23 198/21/21
f 188/18/209 189/21/208 198/21/21 197/18/18
f 169/186/189 188/18/209 197/18/18 206/17/17
f 194/13/187 181/14/142 218/14/14 203/13/13
f 193/187/204 175/10/150 212/10/10 202/9/9
f 195/1/148 187/154/133 224/2/2 204/1/1
f 400/1/225 127/4/4 140/3/3 420/2/226
f 246/5/227 240/8/228 336/7/229 324/6/230
f 398/9/231 119/12/12 126/11/11 408/10/232
f 399/13/233 120/16/16 133/15/15 414/14/234
f 402/17/235 113/20/20 114/19/19 393/18/236
f 393/18/236 114/19/19 115/22/22 394/21/237
f 394/21/237 115/22/22 116/24/24 395/23/238
f 395/23/238 116/24/24 117/26/26 396/25/239
f 396/25/239 117/26/26 118/28/28 397/27/240
f 397/27/240 118/28/28 119/12/12 398/9/231
f 227/29/241 258/32/242 259/31/243 225/30/244
f 235/33/245 262/36/246 260/35/247 234/34/248
f 249/37/249 250/40/250 270/39/251 269/38/252
f 250/40/250 251/42/253 271/41/254 270/39/251
f 244/43/255 245/46/256 279/45/257 278/44/258
f 234/34/248 260/35/247 261/48/259 232/47/260
f 230/49/261 255/52/262 256/51/263 229/50/264
f 243/53/265 244/43/255 278/44/258 277/54/266
f 231/55/267 226/58/268 253/57/269 254/56/270
f 238/59/271 233/62/272 266/61/273 265/60/274
f 245/46/256 240/64/228 280/63/275 279/45/257
f 252/65/276 247/68/277 273/67/278 272/66/279
f 251/42/253 252/65/276 272/66/279 271/41/254
f 235/33/245 236/70/280 263/69/281 262/36/246
f 226/58/268 239/72/282 275/71/283 253/57/269
f 240/64/228 246/74/227 268/73/284 280/63/275
f 247/68/277 232/47/260 261/48/259 273/67/278
f 283/75/285 339/75/286 338/76/287 282/76/288
f 226/77/268 231/80/267 310/79/289 309/78/290
f 232/81/260 247/84/277 329/83/291 317/82/292
f 250/85/250 249/88/249 325/87/293 326/86/294
f 231/80/267 230/90/261 311/89/295 310/79/289
f 251/91/253 250/85/250 326/86/294 327/92/296
f 230/90/261 229/94/264 312/93/297 311/89/295
f 252/95/276 251/91/253 327/92/296 328/96/298
f 229/94/264 228/98/299 313/97/300 312/93/297
f 247/84/277 252/95/276 328/96/298 329/83/291
f 228/98/299 227/100/241 314/99/301 313/97/300
f 241/101/302 239/104/282 331/103/303 330/102/304
f 227/100/241 225/106/244 315/105/305 314/99/301
f 242/107/306 241/101/302 330/102/304 332/108/307
f 234/109/248 232/81/260 317/82/292 316/110/308
f 243/111/265 242/107/306 332/108/307 333/112/309
f 236/113/280 235/116/245 318/115/310 319/114/311
f 239/104/282 226/77/268 309/78/290 331/103/303
f 249/88/249 248/118/312 323/117/313 325/87/293
f 245/119/256 244/122/255 334/121/314 335/120/315
f 237/123/316 236/113/280 319/114/311 320/124/317
f 240/8/228 245/119/256 335/120/315 336/7/229
f 238/125/271 237/123/316 320/124/317 321/126/318
f 225/106/244 233/128/272 322/127/319 315/105/305
f 233/128/272 238/125/271 321/126/318 322/127/319
f 288/129/320 290/130/321 318/115/310 316/110/308
f 291/131/322 292/132/323 320/124/317 319/114/311
f 302/133/324 330/102/304 331/103/303 303/134/325
f 295/135/326 297/136/327 325/87/293 323/117/313
f 305/137/328 333/112/309 332/108/307 304/138/329
f 299/139/330 300/140/331 328/96/298 327/92/296
f 282/76/288 281/141/332 309/78/290 310/79/289
f 302/133/324 304/138/329 332/108/307 330/102/304
f 305/137/328 306/142/333 334/121/314 333/112/309
f 293/143/334 294/144/335 322/127/319 321/126/318
f 295/135/326 323/117/313 324/6/230 296/145/336
f 285/146/337 313/97/300 314/99/301 286/147/338
f 298/148/339 326/86/294 325/87/293 297/136/327
f 284/149/340 312/93/297 313/97/300 285/146/337
f 292/132/323 293/143/334 321/126/318 320/124/317
f 300/140/331 301/150/341 329/83/291 328/96/298
f 233/62/272 225/30/244 259/31/243 266/61/273
f 294/144/335 287/151/342 315/105/305 322/127/319
f 308/152/343 296/145/336 324/6/230 336/7/229
f 235/116/245 234/109/248 316/110/308 318/115/310
f 382/153/344 279/45/257 280/63/275 383/154/345
f 381/155/346 278/44/258 279/45/257 382/153/344
f 380/156/347 277/54/266 278/44/258 381/155/346
f 379/157/348 276/158/349 277/54/266 380/156/347
f 378/159/350 274/160/351 276/158/349 379/157/348
f 392/161/352 275/71/283 274/160/351 378/159/350
f 376/162/353 272/66/279 273/67/278 377/14/354
f 375/163/355 271/41/254 272/66/279 376/162/353
f 374/164/356 270/39/251 271/41/254 375/163/355
f 373/165/357 269/38/252 270/39/251 374/164/356
f 372/166/358 267/167/359 269/38/252 373/165/357
f 391/168/360 268/169/284 267/167/359 372/166/358
f 370/170/361 265/60/274 266/61/273 371/10/362
f 369/171/363 264/172/364 265/60/274 370/170/361
f 368/173/365 263/69/281 264/172/364 369/171/363
f 367/174/366 262/36/246 263/69/281 368/173/365
f 366/175/367 260/35/247 262/36/246 367/174/366
f 297/136/327 353/136/368 354/148/369 298/148/339
f 301/150/341 357/150/370 345/176/371 289/176/372
f 282/76/288 338/76/287 337/141/373 281/141/332
f 295/135/326 351/135/374 353/136/368 297/136/327
f 308/152/343 364/152/375 352/145/376 296/145/336
f 296/145/336 352/145/376 351/135/374 295/135/326
f 281/141/332 337/141/373 359/134/377 303/134/325
f 293/143/334 349/143/378 350/144/379 294/144/335
f 294/144/335 350/144/379 343/151/380 287/151/342
f 292/132/323 348/132/381 349/143/378 293/143/334
f 307/177/382 363/177/383 364/152/375 308/152/343
f 291/131/322 347/131/384 348/132/381 292/132/323
f 306/142/333 362/142/385 363/177/383 307/177/382
f 290/130/321 346/130/386 347/131/384 291/131/322
f 305/137/328 361/137/387 362/142/385 306/142/333
f 288/129/320 344/129/388 346/130/386 290/130/321
f 304/138/329 360/138/389 361/137/387 305/137/328
f 289/176/372 345/176/371 344/129/388 288/129/320
f 302/133/324 358/133/390 360/138/389 304/138/329
f 287/151/342 343/151/380 342/147/391 286/147/338
f 303/134/325 359/134/377 358/133/390 302/133/324
f 286/147/338 342/147/391 341/146/392 285/146/337
f 300/140/331 356/140/393 357/150/370 301/150/341
f 285/146/337 341/146/392 340/149/394 284/149/340
f 299/139/330 355/139/395 356/140/393 300/140/331
f 244/122/255 243/111/265 333/112/309 334/121/314
f 242/178/306 243/53/265 277/54/266 276/158/349
f 236/70/280 237/179/316 264/172/364 263/69/281
f 227/29/241 228/181/299 257/180/396 258/32/242
f 242/178/306 276/158/349 274/160/351 241/182/302
f 237/179/316 238/59/271 265/60/274 264/172/364
f 249/37/249 269/38/252 267/167/359 248/183/312
f 228/181/299 229/50/264 256/51/263 257/180/396
f 241/182/302 274/160/351 275/71/283 239/72/282
f 248/183/312 267/167/359 268/169/284 246/184/227
f 288/129/320 316/110/308 317/82/292 289/176/372
f 401/161/397 134/185/186 113/20/20 402/17/235
f 390/13/398 261/48/259 260/35/247 366/175/367
f 286/147/338 314/99/301 315/105/305 287/151/342
f 283/75/285 282/76/288 310/79/289 311/89/295
f 230/49/261 231/55/267 254/56/270 255/52/262
f 298/148/339 299/139/330 327/92/296 326/86/294
f 306/142/333 307/177/382 335/120/315 334/121/314
f 307/177/382 308/152/343 336/7/229 335/120/315
f 291/131/322 319/114/311 318/115/310 290/130/321
f 284/149/340 283/75/285 311/89/295 312/93/297
f 301/150/341 289/176/372 317/82/292 329/83/291
f 345/176/371 357/150/370 364/152/375 343/151/380
f 364/152/375 359/134/377 343/151/380
f 364/152/375 357/150/370 352/145/376
f 352/145/376 357/150/370 351/135/374
f 351/135/374 354/148/369 353/136/368
f 354/148/369 356/140/393 355/139/395
f 356/140/393 351/135/374 357/150/370
f 281/141/332 303/134/325 331/103/303 309/78/290
f 356/140/393 354/148/369 351/135/374
f 345/176/371 349/143/378 344/129/388
f 344/129/388 348/132/381 346/130/386
f 346/130/386 348/132/381 347/131/384
f 348/132/381 344/129/388 349/143/378
f 349/143/378 345/176/371 350/144/379
f 350/144/379 345/176/371 343/151/380
f 343/151/380 337/141/373 342/147/391
f 342/147/391 340/149/394 341/146/392
f 340/149/394 342/147/391 339/75/286
f 339/75/286 342/147/391 338/76/287
f 338/76/287 342/147/391 337/141/373
f 337/141/373 343/151/380 359/134/377
f 359/134/377 364/152/375 358/133/390
f 358/133/390 363/177/383 360/138/389
f 364/152/375 363/177/383 358/133/390
f 360/138/389 362/142/385 361/137/387
f 362/142/385 360/138/389 363/177/383
f 298/148/339 354/148/369 355/139/395 299/139/330
f 284/149/340 340/149/394 339/75/286 283/75/285
f 248/118/312 246/5/227 324/6/230 323/117/313
f 399/13/233 390/13/398 366/175/367 403/175/399
f 275/71/283 392/161/352 365/186/400 253/57/269
f 403/175/399 366/175/367 367/174/366 404/174/401
f 404/174/401 367/174/366 368/173/365 405/173/402
f 405/173/402 368/173/365 369/171/363 406/171/403
f 406/171/403 369/171/363 370/170/361 407/170/404
f 407/170/404 370/170/361 371/10/362 408/10/232
f 400/168/225 391/168/360 372/166/358 409/166/405
f 409/166/405 372/166/358 373/165/357 410/165/406
f 410/165/406 373/165/357 374/164/356 411/164/407
f 411/164/407 374/164/356 375/163/355 412/163/408
f 412/163/408 375/163/355 376/162/353 413/162/409
f 413/162/409 376/162/353 377/14/354 414/14/234
f 401/161/397 392/161/352 378/159/350 415/159/410
f 415/159/410 378/159/350 379/157/348 416/157/411
f 416/157/411 379/157/348 380/156/347 417/156/412
f 417/156/412 380/156/347 381/155/346 418/155/413
f 418/155/413 381/155/346 382/153/344 419/153/414
f 419/153/414 382/153/344 383/154/345 420/2/226
f 258/32/242 388/27/415 389/187/416 259/31/243
f 257/180/396 387/25/417 388/27/415 258/32/242
f 256/51/263 386/23/418 387/25/417 257/180/396
f 255/52/262 385/21/419 386/23/418 256/51/263
f 254/56/270 384/18/420 385/21/419 255/52/262
f 253/57/269 365/186/400 384/18/420 254/56/270
f 261/48/259 390/13/398 377/14/354 273/67/278
f 259/31/243 389/187/416 371/10/362 266/61/273
f 268/73/284 391/1/360 383/154/345 280/63/275
f 139/188/210 419/153/414 420/2/226 140/3/3
f 138/189/211 418/155/413 419/153/414 139/188/210
f 137/190/212 417/156/412 418/155/413 138/189/211
f 136/191/213 416/157/411 417/156/412 137/190/212
f 135/192/214 415/159/410 416/157/411 136/191/213
f 134/185/186 401/161/397 415/159/410 135/192/214
f 132/193/215 413/162/409 414/14/234 133/15/15
f 131/194/216 412/163/408 413/162/409 132/193/215
f 130/195/217 411/164/407 412/163/408 131/194/216
f 129/196/218 410/165/406 411/164/407 130/195/217
f 128/197/219 409/166/405 410/165/406 129/196/218
f 127/198/4 400/168/225 409/166/405 128/197/219
f 125/199/220 407/170/404 408/10/232 126/11/11
f 124/200/221 406/171/403 407/170/404 125/199/220
f 123/201/222 405/173/402 406/171/403 124/200/221
f 122/202/223 404/174/401 405/173/402 123/201/222
f 121/203/224 403/175/399 404/174/401 122/202/223
f 120/16/16 399/13/233 403/175/399 121/203/224
f 392/161/352 401/161/397 402/17/235 365/186/400
f 388/27/415 397/27/240 398/9/231 389/187/416
f 387/25/417 396/25/239 397/27/240 388/27/415
f 386/23/418 395/23/238 396/25/239 387/25/417
f 385/21/419 394/21/237 395/23/238 386/23/418
f 384/18/420 393/18/236 394/21/237 385/21/419
f 365/186/400 402/17/235 393/18/236 384/18/420
f 390/13/398 399/13/233 414/14/234 377/14/354
f 389/187/416 398/9/231 408/10/232 371/10/362
f 391/1/360 400/1/225 420/2/226 383/154/345
