# Blender 4.0.2
# www.blender.org
mtllib Chip.mtl
o Cube
v -0.544052 -0.271014 0.820091
v -0.511652 -0.074633 0.772408
v -0.544052 -0.271014 -0.781222
v -0.511652 -0.074633 -0.733539
v 0.544052 -0.271014 0.820091
v 0.511652 -0.074633 0.772408
v 0.544052 -0.271014 -0.781222
v 0.511652 -0.074633 -0.733539
v -0.544052 -0.074633 0.820091
v -0.544052 -0.074633 -0.781222
v 0.544052 -0.074633 -0.781222
v 0.544052 -0.074633 0.820091
v -0.467949 -0.027033 0.708093
v -0.467949 -0.027033 -0.669224
v 0.467949 -0.027033 -0.669224
v 0.467949 -0.027033 0.708093
v 0.537112 -0.229316 0.693791
v 0.537112 -0.153437 0.693791
v 0.723553 -0.229316 0.693791
v 0.723553 -0.153437 0.693791
v 0.651719 -0.153437 0.693791
v 0.651719 -0.229316 0.693791
v 0.723553 -0.570914 0.693791
v 0.651719 -0.570914 0.693791
v 0.537112 -0.229316 0.713426
v 0.537112 -0.211012 0.731731
v 0.537112 -0.171742 0.731731
v 0.537112 -0.153437 0.713426
v 0.705248 -0.229316 0.731731
v 0.723553 -0.229316 0.713426
v 0.705248 -0.171742 0.731731
v 0.723553 -0.153437 0.713426
v 0.651719 -0.229316 0.713426
v 0.670024 -0.211012 0.731731
v 0.651719 -0.171742 0.731731
v 0.651719 -0.153437 0.713426
v 0.723553 -0.570914 0.713426
v 0.705248 -0.570914 0.731731
v 0.670024 -0.570914 0.731731
v 0.651719 -0.570914 0.713426
v 0.537112 -0.229316 0.674156
v 0.537112 -0.211012 0.655852
v 0.537112 -0.171742 0.655852
v 0.537112 -0.153437 0.674156
v 0.705248 -0.229316 0.655852
v 0.723553 -0.229316 0.674156
v 0.705248 -0.171742 0.655852
v 0.723553 -0.153437 0.674156
v 0.651719 -0.229316 0.674156
v 0.670024 -0.211012 0.655852
v 0.651719 -0.171742 0.655852
v 0.651719 -0.153437 0.674156
v 0.723553 -0.570914 0.674156
v 0.705248 -0.570914 0.655852
v 0.670024 -0.570914 0.655852
v 0.651719 -0.570914 0.674156
v -0.537112 -0.229316 0.693791
v -0.537112 -0.153437 0.693791
v -0.723553 -0.229316 0.693791
v -0.723553 -0.153437 0.693791
v -0.651719 -0.153437 0.693791
v -0.651719 -0.229316 0.693791
v -0.723553 -0.570914 0.693791
v -0.651719 -0.570914 0.693791
v -0.537112 -0.229316 0.713426
v -0.537112 -0.211012 0.731731
v -0.537112 -0.171742 0.731731
v -0.537112 -0.153437 0.713426
v -0.705248 -0.229316 0.731731
v -0.723553 -0.229316 0.713426
v -0.705248 -0.171742 0.731731
v -0.723553 -0.153437 0.713426
v -0.651719 -0.229316 0.713426
v -0.670024 -0.211012 0.731731
v -0.651719 -0.171742 0.731731
v -0.651719 -0.153437 0.713426
v -0.723553 -0.570914 0.713426
v -0.705248 -0.570914 0.731731
v -0.670024 -0.570914 0.731731
v -0.651719 -0.570914 0.713426
v -0.537112 -0.229316 0.674156
v -0.537112 -0.211012 0.655852
v -0.537112 -0.171742 0.655852
v -0.537112 -0.153437 0.674156
v -0.705248 -0.229316 0.655852
v -0.723553 -0.229316 0.674156
v -0.705248 -0.171742 0.655852
v -0.723553 -0.153437 0.674156
v -0.651719 -0.229316 0.674156
v -0.670024 -0.211012 0.655852
v -0.651719 -0.171742 0.655852
v -0.651719 -0.153437 0.674156
v -0.723553 -0.570914 0.674156
v -0.705248 -0.570914 0.655852
v -0.670024 -0.570914 0.655852
v -0.651719 -0.570914 0.674156
v 0.537112 -0.229316 0.246103
v 0.537112 -0.153437 0.246103
v 0.723553 -0.229316 0.246103
v 0.723553 -0.153437 0.246103
v 0.651719 -0.153437 0.246103
v 0.651719 -0.229316 0.246103
v 0.723553 -0.570914 0.246103
v 0.651719 -0.570914 0.246103
v 0.537112 -0.229316 0.265738
v 0.537112 -0.211012 0.284042
v 0.537112 -0.171742 0.284042
v 0.537112 -0.153437 0.265738
v 0.705248 -0.229316 0.284042
v 0.723553 -0.229316 0.265738
v 0.705248 -0.171742 0.284042
v 0.723553 -0.153437 0.265738
v 0.651719 -0.229316 0.265738
v 0.670024 -0.211012 0.284042
v 0.651719 -0.171742 0.284042
v 0.651719 -0.153437 0.265738
v 0.723553 -0.570914 0.265738
v 0.705248 -0.570914 0.284042
v 0.670024 -0.570914 0.284042
v 0.651719 -0.570914 0.265738
v 0.537112 -0.229316 0.226468
v 0.537112 -0.211012 0.208163
v 0.537112 -0.171742 0.208163
v 0.537112 -0.153437 0.226468
v 0.705248 -0.229316 0.208163
v 0.723553 -0.229316 0.226468
v 0.705248 -0.171742 0.208163
v 0.723553 -0.153437 0.226468
v 0.651719 -0.229316 0.226468
v 0.670024 -0.211012 0.208163
v 0.651719 -0.171742 0.208163
v 0.651719 -0.153437 0.226468
v 0.723553 -0.570914 0.226468
v 0.705248 -0.570914 0.208163
v 0.670024 -0.570914 0.208163
v 0.651719 -0.570914 0.226468
v -0.537112 -0.229316 0.246103
v -0.537112 -0.153437 0.246103
v -0.723553 -0.229316 0.246103
v -0.723553 -0.153437 0.246103
v -0.651719 -0.153437 0.246103
v -0.651719 -0.229316 0.246103
v -0.723553 -0.570914 0.246103
v -0.651719 -0.570914 0.246103
v -0.537112 -0.229316 0.265738
v -0.537112 -0.211012 0.284043
v -0.537112 -0.171742 0.284043
v -0.537112 -0.153437 0.265738
v -0.705248 -0.229316 0.284043
v -0.723553 -0.229316 0.265738
v -0.705248 -0.171742 0.284043
v -0.723553 -0.153437 0.265738
v -0.651719 -0.229316 0.265738
v -0.670024 -0.211012 0.284043
v -0.651719 -0.171742 0.284043
v -0.651719 -0.153437 0.265738
v -0.723553 -0.570914 0.265738
v -0.705248 -0.570914 0.284043
v -0.670024 -0.570914 0.284043
v -0.651719 -0.570914 0.265738
v -0.537112 -0.229316 0.226468
v -0.537112 -0.211012 0.208163
v -0.537112 -0.171742 0.208163
v -0.537112 -0.153437 0.226468
v -0.705248 -0.229316 0.208163
v -0.723553 -0.229316 0.226468
v -0.705248 -0.171742 0.208163
v -0.723553 -0.153437 0.226468
v -0.651719 -0.229316 0.226468
v -0.670024 -0.211012 0.208163
v -0.651719 -0.171742 0.208163
v -0.651719 -0.153437 0.226468
v -0.723553 -0.570914 0.226468
v -0.705248 -0.570914 0.208163
v -0.670024 -0.570914 0.208163
v -0.651719 -0.570914 0.226468
v 0.537112 -0.229316 -0.201586
v 0.537112 -0.153437 -0.201586
v 0.723553 -0.229316 -0.201586
v 0.723553 -0.153437 -0.201586
v 0.651719 -0.153437 -0.201586
v 0.651719 -0.229316 -0.201586
v 0.723553 -0.570914 -0.201586
v 0.651719 -0.570914 -0.201586
v 0.537112 -0.229316 -0.181951
v 0.537112 -0.211012 -0.163646
v 0.537112 -0.171742 -0.163646
v 0.537112 -0.153437 -0.181951
v 0.705248 -0.229316 -0.163646
v 0.723553 -0.229316 -0.181951
v 0.705248 -0.171742 -0.163646
v 0.723553 -0.153437 -0.181951
v 0.651719 -0.229316 -0.181951
v 0.670024 -0.211012 -0.163646
v 0.651719 -0.171742 -0.163646
v 0.651719 -0.153437 -0.181951
v 0.723553 -0.570914 -0.181951
v 0.705248 -0.570914 -0.163646
v 0.670024 -0.570914 -0.163646
v 0.651719 -0.570914 -0.181951
v 0.537112 -0.229316 -0.221220
v 0.537112 -0.211012 -0.239525
v 0.537112 -0.171742 -0.239525
v 0.537112 -0.153437 -0.221220
v 0.705248 -0.229316 -0.239525
v 0.723553 -0.229316 -0.221220
v 0.705248 -0.171742 -0.239525
v 0.723553 -0.153437 -0.221220
v 0.651719 -0.229316 -0.221220
v 0.670024 -0.211012 -0.239525
v 0.651719 -0.171742 -0.239525
v 0.651719 -0.153437 -0.221220
v 0.723553 -0.570914 -0.221220
v 0.705248 -0.570914 -0.239525
v 0.670024 -0.570914 -0.239525
v 0.651719 -0.570914 -0.221220
v -0.537112 -0.229316 -0.201585
v -0.537112 -0.153437 -0.201585
v -0.723553 -0.229316 -0.201585
v -0.723553 -0.153437 -0.201585
v -0.651719 -0.153437 -0.201585
v -0.651719 -0.229316 -0.201585
v -0.723553 -0.570914 -0.201585
v -0.651719 -0.570914 -0.201585
v -0.537112 -0.229316 -0.181950
v -0.537112 -0.211012 -0.163646
v -0.537112 -0.171742 -0.163646
v -0.537112 -0.153437 -0.181950
v -0.705248 -0.229316 -0.163646
v -0.723553 -0.229316 -0.181950
v -0.705248 -0.171742 -0.163646
v -0.723553 -0.153437 -0.181950
v -0.651719 -0.229316 -0.181950
v -0.670024 -0.211012 -0.163646
v -0.651719 -0.171742 -0.163646
v -0.651719 -0.153437 -0.181950
v -0.723553 -0.570914 -0.181950
v -0.705248 -0.570914 -0.163646
v -0.670024 -0.570914 -0.163646
v -0.651719 -0.570914 -0.181950
v -0.537112 -0.229316 -0.221220
v -0.537112 -0.211012 -0.239525
v -0.537112 -0.171742 -0.239525
v -0.537112 -0.153437 -0.221220
v -0.705248 -0.229316 -0.239525
v -0.723553 -0.229316 -0.221220
v -0.705248 -0.171742 -0.239525
v -0.723553 -0.153437 -0.221220
v -0.651719 -0.229316 -0.221220
v -0.670024 -0.211012 -0.239525
v -0.651719 -0.171742 -0.239525
v -0.651719 -0.153437 -0.221220
v -0.723553 -0.570914 -0.221220
v -0.705248 -0.570914 -0.239525
v -0.670024 -0.570914 -0.239525
v -0.651719 -0.570914 -0.221220
v 0.537112 -0.229316 -0.649274
v 0.537112 -0.153437 -0.649274
v 0.723553 -0.229316 -0.649274
v 0.723553 -0.153437 -0.649274
v 0.651719 -0.153437 -0.649274
v 0.651719 -0.229316 -0.649274
v 0.723553 -0.570914 -0.649274
v 0.651719 -0.570914 -0.649274
v 0.537112 -0.229316 -0.629639
v 0.537112 -0.211012 -0.611334
v 0.537112 -0.171742 -0.611334
v 0.537112 -0.153437 -0.629639
v 0.705248 -0.229316 -0.611334
v 0.723553 -0.229316 -0.629639
v 0.705248 -0.171742 -0.611334
v 0.723553 -0.153437 -0.629639
v 0.651719 -0.229316 -0.629639
v 0.670024 -0.211012 -0.611334
v 0.651719 -0.171742 -0.611334
v 0.651719 -0.153437 -0.629639
v 0.723553 -0.570914 -0.629639
v 0.705248 -0.570914 -0.611334
v 0.670024 -0.570914 -0.611334
v 0.651719 -0.570914 -0.629639
v 0.537112 -0.229316 -0.668909
v 0.537112 -0.211012 -0.687213
v 0.537112 -0.171742 -0.687213
v 0.537112 -0.153437 -0.668909
v 0.705248 -0.229316 -0.687213
v 0.723553 -0.229316 -0.668909
v 0.705248 -0.171742 -0.687213
v 0.723553 -0.153437 -0.668909
v 0.651719 -0.229316 -0.668909
v 0.670024 -0.211012 -0.687213
v 0.651719 -0.171742 -0.687213
v 0.651719 -0.153437 -0.668909
v 0.723553 -0.570914 -0.668909
v 0.705248 -0.570914 -0.687213
v 0.670024 -0.570914 -0.687213
v 0.651719 -0.570914 -0.668909
v -0.537112 -0.229316 -0.649274
v -0.537112 -0.153437 -0.649274
v -0.723553 -0.229316 -0.649274
v -0.723553 -0.153437 -0.649274
v -0.651719 -0.153437 -0.649274
v -0.651719 -0.229316 -0.649274
v -0.723553 -0.570914 -0.649274
v -0.651719 -0.570914 -0.649274
v -0.537112 -0.229316 -0.629639
v -0.537112 -0.211012 -0.611334
v -0.537112 -0.171742 -0.611334
v -0.537112 -0.153437 -0.629639
v -0.705248 -0.229316 -0.611334
v -0.723553 -0.229316 -0.629639
v -0.705248 -0.171742 -0.611334
v -0.723553 -0.153437 -0.629639
v -0.651719 -0.229316 -0.629639
v -0.670024 -0.211012 -0.611334
v -0.651719 -0.171742 -0.611334
v -0.651719 -0.153437 -0.629639
v -0.723553 -0.570914 -0.629639
v -0.705248 -0.570914 -0.611334
v -0.670024 -0.570914 -0.611334
v -0.651719 -0.570914 -0.629639
v -0.537112 -0.229316 -0.668909
v -0.537112 -0.211012 -0.687213
v -0.537112 -0.171742 -0.687213
v -0.537112 -0.153437 -0.668909
v -0.705248 -0.229316 -0.687213
v -0.723553 -0.229316 -0.668909
v -0.705248 -0.171742 -0.687213
v -0.723553 -0.153437 -0.668909
v -0.651719 -0.229316 -0.668909
v -0.670024 -0.211012 -0.687213
v -0.651719 -0.171742 -0.687213
v -0.651719 -0.153437 -0.668909
v -0.723553 -0.570914 -0.668909
v -0.705248 -0.570914 -0.687213
v -0.670024 -0.570914 -0.687213
v -0.651719 -0.570914 -0.668909
vn -0.1763 0.9770 0.1198
vn -0.1763 -0.9770 -0.1198
vn -0.1763 -0.9770 0.1198
vn -0.1763 0.9770 -0.1198
vn 0.1763 -0.9770 -0.1198
vn 0.1763 0.9770 -0.1198
vn 0.1763 -0.9770 0.1198
vn 0.1763 0.9770 0.1198
vn 0.0484 0.9983 -0.0329
vn 0.1422 0.9851 0.0966
vn 0.0484 0.9983 0.0329
vn -0.0484 0.9983 0.0329
vn -0.0484 0.9983 -0.0329
vn -0.1422 0.9851 -0.0966
vn 0.1422 0.9851 -0.0966
vn -0.1422 0.9851 0.0966
vn -0.0000 1.0000 -0.0000
vn 0.1718 0.9792 0.1077
vn 0.1776 0.9841 -0.0000
vn -0.1776 -0.9841 -0.0000
vn -0.1699 -0.9797 0.1063
vn 0.3750 0.2688 0.8872
vn -0.0277 -0.2152 0.9762
vn 0.4124 -0.0000 0.9110
vn -0.1996 -0.9772 0.0718
vn -0.2986 -0.9176 0.2622
vn -0.1776 0.9841 -0.0000
vn -0.0000 0.9942 0.1079
vn -0.0619 -0.9887 0.1367
vn 0.0619 -0.9887 0.1367
vn 0.9409 -0.0000 0.3386
vn 0.1776 -0.9841 -0.0000
vn 1.0000 -0.0000 -0.0000
vn -0.0000 0.4459 0.8951
vn -0.7859 -0.2757 0.5535
vn -0.1699 0.9797 0.1063
vn 0.1996 -0.9772 0.0718
vn 0.1718 0.9792 -0.1077
vn -0.1699 -0.9797 -0.1063
vn -0.0277 -0.2152 -0.9762
vn 0.3750 0.2688 -0.8872
vn 0.4124 -0.0000 -0.9110
vn -0.1996 -0.9772 -0.0718
vn -0.2986 -0.9176 -0.2622
vn -0.0000 0.9942 -0.1079
vn -0.0619 -0.9887 -0.1367
vn 0.9409 -0.0000 -0.3386
vn 0.0619 -0.9887 -0.1367
vn 0.1996 -0.9772 -0.0718
vn -0.7859 -0.2757 -0.5535
vn -0.0000 0.4459 -0.8951
vn -0.1699 0.9797 -0.1063
vn -0.7859 0.2757 -0.5535
vn -0.1718 0.9792 0.1077
vn 0.1699 -0.9797 0.1063
vn 0.0277 -0.2152 0.9762
vn -0.3750 0.2688 0.8872
vn -0.4124 -0.0000 0.9110
vn 0.2986 -0.9176 0.2622
vn -0.9409 -0.0000 0.3386
vn -1.0000 -0.0000 -0.0000
vn 0.7859 -0.2757 0.5535
vn 0.1699 0.9797 0.1063
vn 0.7859 0.2757 0.5535
vn -0.1718 0.9792 -0.1077
vn 0.1699 -0.9797 -0.1063
vn -0.3750 0.2688 -0.8872
vn 0.0277 -0.2152 -0.9762
vn -0.4124 -0.0000 -0.9110
vn 0.2986 -0.9176 -0.2622
vn -0.9409 -0.0000 -0.3386
vn 0.7859 -0.2757 -0.5535
vn 0.1699 0.9797 -0.1063
vn -0.7859 0.2757 0.5535
vn 0.7859 0.2757 -0.5535
vt 0.817351 0.362557
vt 0.664963 0.514945
vt 0.664963 0.362557
vt 0.817351 0.514945
vt 0.664963 0.667333
vt 0.817351 0.667333
vt 0.664963 0.819721
vt 0.817351 0.819721
vt 0.664963 0.972110
vt 0.512574 0.819721
vt 0.512574 0.667333
vt 0.467265 0.663607
vt 0.451348 0.034339
vt 0.467265 0.011187
vt 0.965201 0.815184
vt 0.969739 0.667333
vt 0.969739 0.819721
vt 0.965201 0.671871
vt 0.821888 0.671871
vt 0.821888 0.815184
vt 0.037263 0.643729
vt 0.451348 0.643729
vt 0.023940 0.011187
vt 0.023940 0.663607
vt 0.037263 0.034339
vt 0.409645 0.769929
vt 0.312223 0.807743
vt 0.312223 0.769929
vt 0.068669 0.769929
vt 0.019958 0.807743
vt 0.019958 0.769929
vt 0.276971 0.867820
vt 0.201343 0.915592
vt 0.166091 0.867820
vt 0.068669 0.807743
vt 0.458356 0.769929
vt 0.409645 0.807743
vt 0.166091 0.915592
vt 0.166091 0.807743
vt 0.166091 0.769929
vt 0.141266 0.842995
vt 0.093494 0.842995
vt 0.276971 0.940417
vt 0.201343 0.989128
vt 0.201343 0.932637
vt 0.312223 0.989128
vt 0.312223 0.940417
vt 0.019958 0.842995
vt 0.312223 0.842995
vt 0.068669 0.842995
vt 0.243321 0.753271
vt 0.097189 0.753271
vt 0.132441 0.680205
vt 0.166091 0.915592
vt 0.208069 0.680205
vt 0.817351 0.972110
vt 0.458356 0.807743
vt 0.276971 0.989128
vt 0.097189 0.715457
vt 0.243321 0.715457
s 1
usemtl Material
f 9/1/1 3/2/2 1/3/3
f 10/4/4 7/5/5 3/2/2
f 11/6/6 5/7/7 7/5/5
f 12/8/8 1/9/3 5/7/7
f 7/5/5 1/10/3 3/11/2
f 8/12/9 16/13/10 6/14/11
f 2/15/12 10/16/4 9/17/1
f 4/18/13 11/6/6 10/16/4
f 8/19/9 12/8/8 11/6/6
f 6/20/11 9/17/1 12/8/8
f 14/21/14 16/13/10 15/22/15
f 2/23/12 14/21/14 4/24/13
f 6/14/11 13/25/16 2/23/12
f 4/24/13 15/22/15 8/12/9
f 21/26/17 32/27/18 20/28/19
f 22/29/20 25/30/21 17/31/20
f 31/32/22 34/33/23 29/34/24
f 22/29/20 40/35/25 33/35/26
f 18/36/27 36/37/28 21/26/17
f 29/34/24 39/38/29 38/34/30
f 30/39/31 23/40/32 19/40/33
f 20/28/19 30/39/31 19/40/33
f 38/41/30 39/42/29 24/29/20
f 35/43/34 26/44/35 34/45/23
f 31/32/22 30/39/31 32/27/18
f 28/46/36 35/43/34 36/47/28
f 33/35/26 26/48/35 25/30/21
f 36/47/28 31/32/22 32/49/18
f 33/35/26 39/50/29 34/50/23
f 30/39/31 38/34/30 37/39/37
f 18/51/27 17/52/20 26/53/35
f 48/27/38 21/26/17 20/28/19
f 41/30/39 22/29/20 17/31/20
f 50/33/40 47/32/41 45/34/42
f 56/35/43 22/29/20 49/35/44
f 52/37/45 18/36/27 21/26/17
f 45/34/42 55/38/46 50/54/40
f 23/40/32 46/39/47 19/40/33
f 46/39/47 20/28/19 19/40/33
f 54/41/48 53/39/49 23/40/32
f 42/44/50 51/43/51 50/45/40
f 47/32/41 46/39/47 45/34/42
f 51/43/51 44/46/52 52/47/45
f 42/48/50 49/35/44 41/30/39
f 47/32/41 52/47/45 48/49/38
f 49/35/44 55/50/46 56/35/43
f 54/34/48 46/39/47 53/39/49
f 42/53/50 18/51/27 43/55/53
f 72/27/54 61/26/17 60/28/27
f 65/30/55 62/29/32 57/31/32
f 74/33/56 71/32/57 69/34/58
f 80/35/37 62/29/32 73/35/59
f 76/37/28 58/36/19 61/26/17
f 69/34/58 79/38/30 74/54/56
f 63/40/20 70/39/60 59/40/61
f 70/39/60 60/28/27 59/40/61
f 78/41/29 77/39/25 63/40/20
f 66/44/62 75/43/34 74/45/56
f 71/32/57 70/39/60 69/34/58
f 75/43/34 68/46/63 76/47/28
f 66/48/62 73/35/59 65/30/55
f 71/32/57 76/47/28 72/49/54
f 73/35/59 79/50/30 80/35/37
f 78/34/29 70/39/60 77/39/25
f 66/53/62 58/51/19 67/55/64
f 61/26/17 88/27/65 60/28/27
f 62/29/32 81/30/66 57/31/32
f 87/32/67 90/33/68 85/34/69
f 62/29/32 96/35/49 89/35/70
f 58/36/19 92/37/45 61/26/17
f 85/34/69 95/38/48 94/34/46
f 86/39/71 63/40/20 59/40/61
f 60/28/27 86/39/71 59/40/61
f 94/41/46 95/42/48 64/29/32
f 91/43/51 82/44/72 90/45/68
f 87/32/67 86/39/71 88/27/65
f 84/46/73 91/43/51 92/47/45
f 89/35/70 82/48/72 81/30/66
f 92/47/45 87/32/67 88/49/65
f 89/35/70 95/50/48 90/50/68
f 86/39/71 94/34/46 93/39/43
f 58/51/19 57/52/32 82/53/72
f 101/26/17 112/27/18 100/28/19
f 102/29/20 105/30/21 97/31/20
f 111/32/22 114/33/23 109/34/24
f 102/29/20 120/35/25 113/35/26
f 98/36/27 116/37/28 101/26/17
f 109/34/24 119/38/29 118/34/30
f 110/39/31 103/40/32 99/40/33
f 100/28/19 110/39/31 99/40/33
f 118/41/30 119/42/29 104/29/20
f 115/43/34 106/44/35 114/45/23
f 111/32/22 110/39/31 112/27/18
f 108/46/36 115/43/34 116/47/28
f 113/35/26 106/48/35 105/30/21
f 116/47/28 111/32/22 112/49/18
f 113/35/26 119/50/29 114/50/23
f 110/39/31 118/34/30 117/39/37
f 98/51/27 97/52/20 106/53/35
f 128/27/38 101/26/17 100/28/19
f 121/30/39 102/29/20 97/31/20
f 130/33/40 127/32/41 125/34/42
f 136/35/43 102/29/20 129/35/44
f 132/37/45 98/36/27 101/26/17
f 125/34/42 135/38/46 130/54/40
f 103/40/32 126/39/47 99/40/33
f 126/39/47 100/28/19 99/40/33
f 134/41/48 133/39/49 103/40/32
f 122/44/50 131/43/51 130/45/40
f 127/32/41 126/39/47 125/34/42
f 131/43/51 124/46/52 132/47/45
f 122/48/50 129/35/44 121/30/39
f 127/32/41 132/47/45 128/49/38
f 129/35/44 135/50/46 136/35/43
f 134/34/48 126/39/47 133/39/49
f 122/53/50 98/51/27 123/55/53
f 152/27/54 141/26/17 140/28/27
f 145/30/55 142/29/32 137/31/32
f 154/33/56 151/32/57 149/34/58
f 160/35/37 142/29/32 153/35/59
f 156/37/28 138/36/19 141/26/17
f 149/34/58 159/38/30 154/54/56
f 143/40/20 150/39/60 139/40/61
f 150/39/60 140/28/27 139/40/61
f 158/41/29 157/39/25 143/40/20
f 146/44/62 155/43/34 154/45/56
f 151/32/57 150/39/60 149/34/58
f 155/43/34 148/46/63 156/47/28
f 146/48/62 153/35/59 145/30/55
f 151/32/57 156/47/28 152/49/54
f 153/35/59 159/50/30 160/35/37
f 158/34/29 150/39/60 157/39/25
f 146/53/62 138/51/19 147/55/64
f 141/26/17 168/27/65 140/28/27
f 142/29/32 161/30/66 137/31/32
f 167/32/67 170/33/68 165/34/69
f 142/29/32 176/35/49 169/35/70
f 138/36/19 172/37/45 141/26/17
f 165/34/69 175/38/48 174/34/46
f 166/39/71 143/40/20 139/40/61
f 140/28/27 166/39/71 139/40/61
f 174/41/46 175/42/48 144/29/32
f 171/43/51 162/44/72 170/45/68
f 167/32/67 166/39/71 168/27/65
f 164/46/73 171/43/51 172/47/45
f 169/35/70 162/48/72 161/30/66
f 172/47/45 167/32/67 168/49/65
f 169/35/70 175/50/48 170/50/68
f 166/39/71 174/34/46 173/39/43
f 138/51/19 137/52/32 162/53/72
f 181/26/17 192/27/18 180/28/19
f 182/29/20 185/30/21 177/31/20
f 191/32/22 194/33/23 189/34/24
f 182/29/20 200/35/25 193/35/26
f 178/36/27 196/37/28 181/26/17
f 189/34/24 199/38/29 198/34/30
f 190/39/31 183/40/32 179/40/33
f 180/28/19 190/39/31 179/40/33
f 198/41/30 199/42/29 184/29/20
f 195/43/34 186/44/35 194/45/23
f 191/32/22 190/39/31 192/27/18
f 188/46/36 195/43/34 196/47/28
f 193/35/26 186/48/35 185/30/21
f 196/47/28 191/32/22 192/49/18
f 193/35/26 199/50/29 194/50/23
f 190/39/31 198/34/30 197/39/37
f 178/51/27 177/52/20 186/53/35
f 208/27/38 181/26/17 180/28/19
f 201/30/39 182/29/20 177/31/20
f 210/33/40 207/32/41 205/34/42
f 216/35/43 182/29/20 209/35/44
f 212/37/45 178/36/27 181/26/17
f 205/34/42 215/38/46 210/54/40
f 183/40/32 206/39/47 179/40/33
f 206/39/47 180/28/19 179/40/33
f 214/41/48 213/39/49 183/40/32
f 202/44/50 211/43/51 210/45/40
f 207/32/41 206/39/47 205/34/42
f 211/43/51 204/46/52 212/47/45
f 202/48/50 209/35/44 201/30/39
f 207/32/41 212/47/45 208/49/38
f 209/35/44 215/50/46 216/35/43
f 214/34/48 206/39/47 213/39/49
f 202/53/50 178/51/27 203/55/53
f 232/27/54 221/26/17 220/28/27
f 225/30/55 222/29/32 217/31/32
f 234/33/56 231/32/57 229/34/58
f 240/35/37 222/29/32 233/35/59
f 236/37/28 218/36/19 221/26/17
f 229/34/58 239/38/30 234/54/56
f 223/40/20 230/39/60 219/40/61
f 230/39/60 220/28/27 219/40/61
f 238/41/29 237/39/25 223/40/20
f 226/44/62 235/43/34 234/45/56
f 231/32/57 230/39/60 229/34/58
f 235/43/34 228/46/63 236/47/28
f 226/48/62 233/35/59 225/30/55
f 231/32/57 236/47/28 232/49/54
f 233/35/59 239/50/30 240/35/37
f 238/34/29 230/39/60 237/39/25
f 226/53/62 218/51/19 227/55/64
f 221/26/17 248/27/65 220/28/27
f 222/29/32 241/30/66 217/31/32
f 247/32/67 250/33/68 245/34/69
f 222/29/32 256/35/49 249/35/70
f 218/36/19 252/37/45 221/26/17
f 245/34/69 255/38/48 254/34/46
f 246/39/71 223/40/20 219/40/61
f 220/28/27 246/39/71 219/40/61
f 254/41/46 255/42/48 224/29/32
f 251/43/51 242/44/72 250/45/68
f 247/32/67 246/39/71 248/27/65
f 244/46/73 251/43/51 252/47/45
f 249/35/70 242/48/72 241/30/66
f 252/47/45 247/32/67 248/49/65
f 249/35/70 255/50/48 250/50/68
f 246/39/71 254/34/46 253/39/43
f 218/51/19 217/52/32 242/53/72
f 261/26/17 272/27/18 260/28/19
f 262/29/20 265/30/21 257/31/20
f 271/32/22 274/33/23 269/34/24
f 262/29/20 280/35/25 273/35/26
f 258/36/27 276/37/28 261/26/17
f 269/34/24 279/38/29 278/34/30
f 270/39/31 263/40/32 259/40/33
f 260/28/19 270/39/31 259/40/33
f 278/41/30 279/42/29 264/29/20
f 275/43/34 266/44/35 274/45/23
f 271/32/22 270/39/31 272/27/18
f 268/46/36 275/43/34 276/47/28
f 273/35/26 266/48/35 265/30/21
f 276/47/28 271/32/22 272/49/18
f 273/35/26 279/50/29 274/50/23
f 270/39/31 278/34/30 277/39/37
f 258/51/27 257/52/20 266/53/35
f 288/27/38 261/26/17 260/28/19
f 281/30/39 262/29/20 257/31/20
f 290/33/40 287/32/41 285/34/42
f 296/35/43 262/29/20 289/35/44
f 292/37/45 258/36/27 261/26/17
f 285/34/42 295/38/46 290/54/40
f 263/40/32 286/39/47 259/40/33
f 286/39/47 260/28/19 259/40/33
f 294/41/48 293/39/49 263/40/32
f 282/44/50 291/43/51 290/45/40
f 287/32/41 286/39/47 285/34/42
f 291/43/51 284/46/52 292/47/45
f 282/48/50 289/35/44 281/30/39
f 287/32/41 292/47/45 288/49/38
f 289/35/44 295/50/46 296/35/43
f 294/34/48 286/39/47 293/39/49
f 282/53/50 258/51/27 283/55/53
f 312/27/54 301/26/17 300/28/27
f 305/30/55 302/29/32 297/31/32
f 314/33/56 311/32/57 309/34/58
f 320/35/37 302/29/32 313/35/59
f 316/37/28 298/36/19 301/26/17
f 309/34/58 319/38/30 314/54/56
f 303/40/20 310/39/60 299/40/61
f 310/39/60 300/28/27 299/40/61
f 318/41/29 317/39/25 303/40/20
f 306/44/62 315/43/34 314/45/56
f 311/32/57 310/39/60 309/34/58
f 315/43/34 308/46/63 316/47/28
f 306/48/62 313/35/59 305/30/55
f 311/32/57 316/47/28 312/49/54
f 313/35/59 319/50/30 320/35/37
f 318/34/29 310/39/60 317/39/25
f 306/53/62 298/51/19 307/55/64
f 301/26/17 328/27/65 300/28/27
f 302/29/32 321/30/66 297/31/32
f 327/32/67 330/33/68 325/34/69
f 302/29/32 336/35/49 329/35/70
f 298/36/19 332/37/45 301/26/17
f 325/34/69 335/38/48 334/34/46
f 326/39/71 303/40/20 299/40/61
f 300/28/27 326/39/71 299/40/61
f 334/41/46 335/42/48 304/29/32
f 331/43/51 322/44/72 330/45/68
f 327/32/67 326/39/71 328/27/65
f 324/46/73 331/43/51 332/47/45
f 329/35/70 322/48/72 321/30/66
f 332/47/45 327/32/67 328/49/65
f 329/35/70 335/50/48 330/50/68
f 326/39/71 334/34/46 333/39/43
f 298/51/19 297/52/32 322/53/72
f 9/1/1 10/4/4 3/2/2
f 10/4/4 11/6/6 7/5/5
f 11/6/6 12/8/8 5/7/7
f 12/8/8 9/56/1 1/9/3
f 7/5/5 5/7/7 1/10/3
f 8/12/9 15/22/15 16/13/10
f 2/15/12 4/18/13 10/16/4
f 4/18/13 8/19/9 11/6/6
f 8/19/9 6/20/11 12/8/8
f 6/20/11 2/15/12 9/17/1
f 14/21/14 13/25/16 16/13/10
f 2/23/12 13/25/16 14/21/14
f 6/14/11 16/13/10 13/25/16
f 4/24/13 14/21/14 15/22/15
f 21/26/17 36/37/28 32/27/18
f 22/29/20 33/35/26 25/30/21
f 31/32/22 35/43/34 34/33/23
f 22/29/20 24/29/20 40/35/25
f 18/36/27 28/57/36 36/37/28
f 29/34/24 34/54/23 39/38/29
f 30/39/31 37/39/37 23/40/32
f 20/28/19 32/27/18 30/39/31
f 40/35/25 24/29/20 39/42/29
f 24/29/20 23/40/32 38/41/30
f 23/40/32 37/39/37 38/41/30
f 35/43/34 27/58/74 26/44/35
f 31/32/22 29/34/24 30/39/31
f 28/46/36 27/58/74 35/43/34
f 33/35/26 34/50/23 26/48/35
f 36/47/28 35/43/34 31/32/22
f 33/35/26 40/35/25 39/50/29
f 30/39/31 29/34/24 38/34/30
f 17/52/20 25/59/21 26/53/35
f 26/53/35 27/55/74 18/51/27
f 27/55/74 28/60/36 18/51/27
f 48/27/38 52/37/45 21/26/17
f 41/30/39 49/35/44 22/29/20
f 50/33/40 51/43/51 47/32/41
f 56/35/43 24/29/20 22/29/20
f 52/37/45 44/57/52 18/36/27
f 45/34/42 54/34/48 55/38/46
f 23/40/32 53/39/49 46/39/47
f 46/39/47 48/27/38 20/28/19
f 23/40/32 24/29/20 54/41/48
f 24/29/20 56/35/43 55/42/46
f 54/41/48 24/29/20 55/42/46
f 42/44/50 43/58/53 51/43/51
f 47/32/41 48/27/38 46/39/47
f 51/43/51 43/58/53 44/46/52
f 42/48/50 50/50/40 49/35/44
f 47/32/41 51/43/51 52/47/45
f 49/35/44 50/50/40 55/50/46
f 54/34/48 45/34/42 46/39/47
f 42/53/50 41/59/39 17/52/20
f 17/52/20 18/51/27 42/53/50
f 18/51/27 44/60/52 43/55/53
f 72/27/54 76/37/28 61/26/17
f 65/30/55 73/35/59 62/29/32
f 74/33/56 75/43/34 71/32/57
f 80/35/37 64/29/32 62/29/32
f 76/37/28 68/57/63 58/36/19
f 69/34/58 78/34/29 79/38/30
f 63/40/20 77/39/25 70/39/60
f 70/39/60 72/27/54 60/28/27
f 63/40/20 64/29/32 78/41/29
f 64/29/32 80/35/37 79/42/30
f 78/41/29 64/29/32 79/42/30
f 66/44/62 67/58/64 75/43/34
f 71/32/57 72/27/54 70/39/60
f 75/43/34 67/58/64 68/46/63
f 66/48/62 74/50/56 73/35/59
f 71/32/57 75/43/34 76/47/28
f 73/35/59 74/50/56 79/50/30
f 78/34/29 69/34/58 70/39/60
f 66/53/62 65/59/55 57/52/32
f 57/52/32 58/51/19 66/53/62
f 58/51/19 68/60/63 67/55/64
f 61/26/17 92/37/45 88/27/65
f 62/29/32 89/35/70 81/30/66
f 87/32/67 91/43/51 90/33/68
f 62/29/32 64/29/32 96/35/49
f 58/36/19 84/57/73 92/37/45
f 85/34/69 90/54/68 95/38/48
f 86/39/71 93/39/43 63/40/20
f 60/28/27 88/27/65 86/39/71
f 96/35/49 64/29/32 95/42/48
f 64/29/32 63/40/20 94/41/46
f 63/40/20 93/39/43 94/41/46
f 91/43/51 83/58/75 82/44/72
f 87/32/67 85/34/69 86/39/71
f 84/46/73 83/58/75 91/43/51
f 89/35/70 90/50/68 82/48/72
f 92/47/45 91/43/51 87/32/67
f 89/35/70 96/35/49 95/50/48
f 86/39/71 85/34/69 94/34/46
f 57/52/32 81/59/66 82/53/72
f 82/53/72 83/55/75 58/51/19
f 83/55/75 84/60/73 58/51/19
f 101/26/17 116/37/28 112/27/18
f 102/29/20 113/35/26 105/30/21
f 111/32/22 115/43/34 114/33/23
f 102/29/20 104/29/20 120/35/25
f 98/36/27 108/57/36 116/37/28
f 109/34/24 114/54/23 119/38/29
f 110/39/31 117/39/37 103/40/32
f 100/28/19 112/27/18 110/39/31
f 120/35/25 104/29/20 119/42/29
f 104/29/20 103/40/32 118/41/30
f 103/40/32 117/39/37 118/41/30
f 115/43/34 107/58/74 106/44/35
f 111/32/22 109/34/24 110/39/31
f 108/46/36 107/58/74 115/43/34
f 113/35/26 114/50/23 106/48/35
f 116/47/28 115/43/34 111/32/22
f 113/35/26 120/35/25 119/50/29
f 110/39/31 109/34/24 118/34/30
f 97/52/20 105/59/21 106/53/35
f 106/53/35 107/55/74 98/51/27
f 107/55/74 108/60/36 98/51/27
f 128/27/38 132/37/45 101/26/17
f 121/30/39 129/35/44 102/29/20
f 130/33/40 131/43/51 127/32/41
f 136/35/43 104/29/20 102/29/20
f 132/37/45 124/57/52 98/36/27
f 125/34/42 134/34/48 135/38/46
f 103/40/32 133/39/49 126/39/47
f 126/39/47 128/27/38 100/28/19
f 103/40/32 104/29/20 134/41/48
f 104/29/20 136/35/43 135/42/46
f 134/41/48 104/29/20 135/42/46
f 122/44/50 123/58/53 131/43/51
f 127/32/41 128/27/38 126/39/47
f 131/43/51 123/58/53 124/46/52
f 122/48/50 130/50/40 129/35/44
f 127/32/41 131/43/51 132/47/45
f 129/35/44 130/50/40 135/50/46
f 134/34/48 125/34/42 126/39/47
f 122/53/50 121/59/39 97/52/20
f 97/52/20 98/51/27 122/53/50
f 98/51/27 124/60/52 123/55/53
f 152/27/54 156/37/28 141/26/17
f 145/30/55 153/35/59 142/29/32
f 154/33/56 155/43/34 151/32/57
f 160/35/37 144/29/32 142/29/32
f 156/37/28 148/57/63 138/36/19
f 149/34/58 158/34/29 159/38/30
f 143/40/20 157/39/25 150/39/60
f 150/39/60 152/27/54 140/28/27
f 143/40/20 144/29/32 158/41/29
f 144/29/32 160/35/37 159/42/30
f 158/41/29 144/29/32 159/42/30
f 146/44/62 147/58/64 155/43/34
f 151/32/57 152/27/54 150/39/60
f 155/43/34 147/58/64 148/46/63
f 146/48/62 154/50/56 153/35/59
f 151/32/57 155/43/34 156/47/28
f 153/35/59 154/50/56 159/50/30
f 158/34/29 149/34/58 150/39/60
f 146/53/62 145/59/55 137/52/32
f 137/52/32 138/51/19 146/53/62
f 138/51/19 148/60/63 147/55/64
f 141/26/17 172/37/45 168/27/65
f 142/29/32 169/35/70 161/30/66
f 167/32/67 171/43/51 170/33/68
f 142/29/32 144/29/32 176/35/49
f 138/36/19 164/57/73 172/37/45
f 165/34/69 170/54/68 175/38/48
f 166/39/71 173/39/43 143/40/20
f 140/28/27 168/27/65 166/39/71
f 176/35/49 144/29/32 175/42/48
f 144/29/32 143/40/20 174/41/46
f 143/40/20 173/39/43 174/41/46
f 171/43/51 163/58/75 162/44/72
f 167/32/67 165/34/69 166/39/71
f 164/46/73 163/58/75 171/43/51
f 169/35/70 170/50/68 162/48/72
f 172/47/45 171/43/51 167/32/67
f 169/35/70 176/35/49 175/50/48
f 166/39/71 165/34/69 174/34/46
f 137/52/32 161/59/66 162/53/72
f 162/53/72 163/55/75 138/51/19
f 163/55/75 164/60/73 138/51/19
f 181/26/17 196/37/28 192/27/18
f 182/29/20 193/35/26 185/30/21
f 191/32/22 195/43/34 194/33/23
f 182/29/20 184/29/20 200/35/25
f 178/36/27 188/57/36 196/37/28
f 189/34/24 194/54/23 199/38/29
f 190/39/31 197/39/37 183/40/32
f 180/28/19 192/27/18 190/39/31
f 200/35/25 184/29/20 199/42/29
f 184/29/20 183/40/32 198/41/30
f 183/40/32 197/39/37 198/41/30
f 195/43/34 187/58/74 186/44/35
f 191/32/22 189/34/24 190/39/31
f 188/46/36 187/58/74 195/43/34
f 193/35/26 194/50/23 186/48/35
f 196/47/28 195/43/34 191/32/22
f 193/35/26 200/35/25 199/50/29
f 190/39/31 189/34/24 198/34/30
f 177/52/20 185/59/21 186/53/35
f 186/53/35 187/55/74 178/51/27
f 187/55/74 188/60/36 178/51/27
f 208/27/38 212/37/45 181/26/17
f 201/30/39 209/35/44 182/29/20
f 210/33/40 211/43/51 207/32/41
f 216/35/43 184/29/20 182/29/20
f 212/37/45 204/57/52 178/36/27
f 205/34/42 214/34/48 215/38/46
f 183/40/32 213/39/49 206/39/47
f 206/39/47 208/27/38 180/28/19
f 183/40/32 184/29/20 214/41/48
f 184/29/20 216/35/43 215/42/46
f 214/41/48 184/29/20 215/42/46
f 202/44/50 203/58/53 211/43/51
f 207/32/41 208/27/38 206/39/47
f 211/43/51 203/58/53 204/46/52
f 202/48/50 210/50/40 209/35/44
f 207/32/41 211/43/51 212/47/45
f 209/35/44 210/50/40 215/50/46
f 214/34/48 205/34/42 206/39/47
f 202/53/50 201/59/39 177/52/20
f 177/52/20 178/51/27 202/53/50
f 178/51/27 204/60/52 203/55/53
f 232/27/54 236/37/28 221/26/17
f 225/30/55 233/35/59 222/29/32
f 234/33/56 235/43/34 231/32/57
f 240/35/37 224/29/32 222/29/32
f 236/37/28 228/57/63 218/36/19
f 229/34/58 238/34/29 239/38/30
f 223/40/20 237/39/25 230/39/60
f 230/39/60 232/27/54 220/28/27
f 223/40/20 224/29/32 238/41/29
f 224/29/32 240/35/37 239/42/30
f 238/41/29 224/29/32 239/42/30
f 226/44/62 227/58/64 235/43/34
f 231/32/57 232/27/54 230/39/60
f 235/43/34 227/58/64 228/46/63
f 226/48/62 234/50/56 233/35/59
f 231/32/57 235/43/34 236/47/28
f 233/35/59 234/50/56 239/50/30
f 238/34/29 229/34/58 230/39/60
f 226/53/62 225/59/55 217/52/32
f 217/52/32 218/51/19 226/53/62
f 218/51/19 228/60/63 227/55/64
f 221/26/17 252/37/45 248/27/65
f 222/29/32 249/35/70 241/30/66
f 247/32/67 251/43/51 250/33/68
f 222/29/32 224/29/32 256/35/49
f 218/36/19 244/57/73 252/37/45
f 245/34/69 250/54/68 255/38/48
f 246/39/71 253/39/43 223/40/20
f 220/28/27 248/27/65 246/39/71
f 256/35/49 224/29/32 255/42/48
f 224/29/32 223/40/20 254/41/46
f 223/40/20 253/39/43 254/41/46
f 251/43/51 243/58/75 242/44/72
f 247/32/67 245/34/69 246/39/71
f 244/46/73 243/58/75 251/43/51
f 249/35/70 250/50/68 242/48/72
f 252/47/45 251/43/51 247/32/67
f 249/35/70 256/35/49 255/50/48
f 246/39/71 245/34/69 254/34/46
f 217/52/32 241/59/66 242/53/72
f 242/53/72 243/55/75 218/51/19
f 243/55/75 244/60/73 218/51/19
f 261/26/17 276/37/28 272/27/18
f 262/29/20 273/35/26 265/30/21
f 271/32/22 275/43/34 274/33/23
f 262/29/20 264/29/20 280/35/25
f 258/36/27 268/57/36 276/37/28
f 269/34/24 274/54/23 279/38/29
f 270/39/31 277/39/37 263/40/32
f 260/28/19 272/27/18 270/39/31
f 280/35/25 264/29/20 279/42/29
f 264/29/20 263/40/32 278/41/30
f 263/40/32 277/39/37 278/41/30
f 275/43/34 267/58/74 266/44/35
f 271/32/22 269/34/24 270/39/31
f 268/46/36 267/58/74 275/43/34
f 273/35/26 274/50/23 266/48/35
f 276/47/28 275/43/34 271/32/22
f 273/35/26 280/35/25 279/50/29
f 270/39/31 269/34/24 278/34/30
f 257/52/20 265/59/21 266/53/35
f 266/53/35 267/55/74 258/51/27
f 267/55/74 268/60/36 258/51/27
f 288/27/38 292/37/45 261/26/17
f 281/30/39 289/35/44 262/29/20
f 290/33/40 291/43/51 287/32/41
f 296/35/43 264/29/20 262/29/20
f 292/37/45 284/57/52 258/36/27
f 285/34/42 294/34/48 295/38/46
f 263/40/32 293/39/49 286/39/47
f 286/39/47 288/27/38 260/28/19
f 263/40/32 264/29/20 294/41/48
f 264/29/20 296/35/43 295/42/46
f 294/41/48 264/29/20 295/42/46
f 282/44/50 283/58/53 291/43/51
f 287/32/41 288/27/38 286/39/47
f 291/43/51 283/58/53 284/46/52
f 282/48/50 290/50/40 289/35/44
f 287/32/41 291/43/51 292/47/45
f 289/35/44 290/50/40 295/50/46
f 294/34/48 285/34/42 286/39/47
f 282/53/50 281/59/39 257/52/20
f 257/52/20 258/51/27 282/53/50
f 258/51/27 284/60/52 283/55/53
f 312/27/54 316/37/28 301/26/17
f 305/30/55 313/35/59 302/29/32
f 314/33/56 315/43/34 311/32/57
f 320/35/37 304/29/32 302/29/32
f 316/37/28 308/57/63 298/36/19
f 309/34/58 318/34/29 319/38/30
f 303/40/20 317/39/25 310/39/60
f 310/39/60 312/27/54 300/28/27
f 303/40/20 304/29/32 318/41/29
f 304/29/32 320/35/37 319/42/30
f 318/41/29 304/29/32 319/42/30
f 306/44/62 307/58/64 315/43/34
f 311/32/57 312/27/54 310/39/60
f 315/43/34 307/58/64 308/46/63
f 306/48/62 314/50/56 313/35/59
f 311/32/57 315/43/34 316/47/28
f 313/35/59 314/50/56 319/50/30
f 318/34/29 309/34/58 310/39/60
f 306/53/62 305/59/55 297/52/32
f 297/52/32 298/51/19 306/53/62
f 298/51/19 308/60/63 307/55/64
f 301/26/17 332/37/45 328/27/65
f 302/29/32 329/35/70 321/30/66
f 327/32/67 331/43/51 330/33/68
f 302/29/32 304/29/32 336/35/49
f 298/36/19 324/57/73 332/37/45
f 325/34/69 330/54/68 335/38/48
f 326/39/71 333/39/43 303/40/20
f 300/28/27 328/27/65 326/39/71
f 336/35/49 304/29/32 335/42/48
f 304/29/32 303/40/20 334/41/46
f 303/40/20 333/39/43 334/41/46
f 331/43/51 323/58/75 322/44/72
f 327/32/67 325/34/69 326/39/71
f 324/46/73 323/58/75 331/43/51
f 329/35/70 330/50/68 322/48/72
f 332/47/45 331/43/51 327/32/67
f 329/35/70 336/35/49 335/50/48
f 326/39/71 325/34/69 334/34/46
f 297/52/32 321/59/66 322/53/72
f 322/53/72 323/55/75 298/51/19
f 323/55/75 324/60/73 298/51/19
